<svg width="61" height="48" viewBox="0 0 61 48" fill="none" xmlns="http://www.w3.org/2000/svg">
<path d="M58.4028 14.398C58.4028 16.4121 57.2918 19.6937 55.0699 24.2426L44.0643 45.7919H33.9101L42.0467 24.7076C40.0796 23.8698 38.4161 22.4499 37.2797 20.6388C36.1166 18.8039 35.535 16.7236 35.535 14.398C35.535 11.1424 36.6205 8.41655 38.7914 6.22048C40.9623 4.02441 43.6752 2.92601 46.9301 2.92529C50.185 2.9253 52.9109 4.02369 55.1076 6.22048C57.3044 8.41727 58.4028 11.1431 58.4028 14.398ZM28.171 14.398C28.171 16.7243 27.0601 20.0058 24.8381 24.2426L13.9081 45.7919H3.90811L12.0425 24.7076C10.0754 23.8183 8.39695 22.3952 7.1979 20.6C5.9837 18.7902 5.3766 16.7229 5.3766 14.398C5.3766 11.1424 6.47463 8.41655 8.67071 6.22048C10.8668 4.0244 13.5667 2.92601 16.7706 2.92529C20.0269 2.92529 22.7402 4.02369 24.9104 6.22048C27.0806 8.41727 28.1674 11.1431 28.171 14.398Z" stroke="#030140" stroke-width="4" stroke-miterlimit="10"/>
</svg>
