<svg width="68" height="54" viewBox="0 0 68 54" fill="none" xmlns="http://www.w3.org/2000/svg">
<path d="M2.73071 37.9953C2.73071 35.7494 3.96958 32.0902 6.4473 27.0176L18.7197 2.98779H30.0428L20.9696 26.499C23.1631 27.4333 25.0181 29.0166 26.2852 31.0362C27.5823 33.0824 28.2308 35.4021 28.2308 37.9953C28.2308 41.6257 27.0204 44.6653 24.5996 47.1142C22.1788 49.563 19.1536 50.7879 15.5241 50.7887C11.8945 50.7887 8.8549 49.5638 6.4052 47.1142C3.95554 44.6645 2.73071 41.6249 2.73071 37.9953ZM36.4424 37.9953C36.4424 35.4013 37.6813 31.742 40.159 27.0176L52.3472 2.98779H63.4982L54.4275 26.499C56.6211 27.4907 58.4926 29.0776 59.8297 31.0795C61.1837 33.0976 61.8607 35.4029 61.8607 37.9953C61.8607 41.6257 60.6362 44.6653 58.1874 47.1142C55.7385 49.563 52.7278 50.7879 49.1552 50.7887C45.524 50.7887 42.4984 49.5638 40.0784 47.1142C37.6584 44.6645 36.4464 41.6249 36.4424 37.9953Z" stroke="#030140" stroke-width="5" stroke-miterlimit="10"/>
</svg>
