<svg width="350" height="199" viewBox="0 0 350 199" fill="none" xmlns="http://www.w3.org/2000/svg">
<g clip-path="url(#clip0)">
<path d="M281.37 89.044C281.675 92.0005 279.545 95.075 276.627 95.6697C275.193 95.9511 273.649 95.6836 272.374 94.9348C269.941 93.5319 268.588 90.4702 269.21 87.7381C269.894 82.2517 280.696 82.2572 281.37 89.044Z" fill="#F24B78"/>
<path d="M267.446 75.5414C267.601 77.8197 269.02 79.9676 271.046 81.039C273.072 82.1104 275.642 82.0052 277.571 80.8457C279.35 79.7817 282.375 75.8411 279.192 74.649C277.697 74.083 275.053 74.7561 273.497 74.89C271.465 75.0465 269.438 75.2557 267.446 75.5414Z" fill="#F24B78"/>
<path d="M275.311 70.8078C275.174 71.5422 274.646 72.1036 274.015 72.4355C273.356 72.7437 272.589 72.7961 271.94 72.4363C269.059 70.8128 275.855 67.5768 275.311 70.8078Z" fill="#F24B78"/>
<path d="M281.821 92.3856C280.263 94.0404 277.953 94.5991 275.822 93.8052C273.998 93.1398 272.642 91.5991 272.053 89.7656C271.777 88.8871 271.681 87.9632 271.799 87.044C271.886 86.3414 272.023 85.6069 272.411 84.98C273.139 83.7843 274.532 83.1069 275.89 82.86C277.587 82.5514 279.4 82.8445 280.898 83.7036C281.239 83.9086 281.5 83.348 281.16 83.143C279.687 82.2813 277.898 81.959 276.219 82.1857C274.669 82.3725 273.062 83.0452 272.106 84.3445C271.639 84.9796 271.447 85.6931 271.286 86.4567C271.097 87.4632 271.122 88.4745 271.357 89.464C271.857 91.4667 273.208 93.2213 275.057 94.1243C276.26 94.6938 277.612 94.9011 278.917 94.6596C280.222 94.4182 281.373 93.7124 282.283 92.7381C282.575 92.4679 282.084 92.0917 281.821 92.3856Z" fill="#030140"/>
<path d="M279.878 72.7907C278.312 72.819 276.751 73.1668 275.196 73.3008C273.377 73.4619 271.589 73.673 269.781 73.9397C269.623 73.956 269.505 74.1016 269.498 74.2891C269.647 76.2479 270.638 78.1198 272.199 79.3193C273.791 80.5689 275.889 81.046 277.87 80.6547C279.07 80.4241 280.132 79.8876 281.032 79.0744C281.324 78.8042 280.953 78.3089 280.662 78.579C279.226 79.8744 277.258 80.3977 275.364 80.0864C273.549 79.7669 271.999 78.673 271.04 77.1179C270.498 76.2402 270.183 75.2588 270.103 74.2266L269.82 74.576C271.628 74.3093 273.416 74.0981 275.235 73.937C276.79 73.8031 278.351 73.4553 279.917 73.4269C280.339 73.3835 280.276 72.7763 279.878 72.7907Z" fill="#030140"/>
<path d="M277.378 69.4471C277.167 70.7495 275.484 71.4568 274.378 70.7973C274.378 70.7973 274.323 70.7763 274.378 70.7973C274.352 70.8 274.349 70.7736 274.323 70.7763C274.294 70.7526 274.265 70.729 274.21 70.708C274.181 70.6843 274.152 70.6606 274.123 70.637C274.12 70.6106 274.093 70.6133 274.091 70.5869C274.033 70.5395 274.091 70.5869 274.091 70.5869C274.059 70.5368 274.001 70.4894 273.969 70.4394C273.908 70.3656 273.969 70.4394 273.966 70.413C273.964 70.3866 273.935 70.3629 273.929 70.3101C273.926 70.2837 273.918 70.2045 273.926 70.2837C273.924 70.2573 273.921 70.2309 273.918 70.2045C273.915 70.1781 273.913 70.1517 273.91 70.1253C273.905 70.0725 273.913 70.1517 273.913 70.1517C273.91 70.1253 273.91 70.1253 273.907 70.0989C273.902 70.0461 273.923 69.9906 273.944 69.9351C273.925 70.017 273.944 69.9351 273.967 69.906C273.991 69.8769 273.988 69.8505 274.012 69.8214C274.035 69.7922 274.033 69.7658 274.056 69.7367C274.103 69.6785 274.033 69.7658 274.08 69.7076C274.127 69.6494 274.148 69.5939 274.195 69.5357C274.242 69.4774 274.292 69.4456 274.339 69.3874C274.363 69.3582 274.387 69.3291 274.363 69.3582C274.387 69.3291 274.436 69.2973 274.46 69.2682C274.583 69.1754 274.707 69.0826 274.83 68.9898C274.907 68.9553 274.954 68.8971 275.03 68.8625C275.056 68.8598 275.13 68.7989 275.08 68.8307C275.13 68.7989 275.156 68.7961 275.206 68.7643C275.359 68.6952 275.511 68.6261 275.637 68.5597C275.714 68.5252 275.792 68.517 275.842 68.4852C275.869 68.4825 275.919 68.4506 275.945 68.4479C275.971 68.4452 276.074 68.4079 275.998 68.4425C276.153 68.3998 276.284 68.3862 276.442 68.3699C276.521 68.3618 276.574 68.3563 276.627 68.3509C276.706 68.3427 276.574 68.3563 276.679 68.3454C276.706 68.3427 276.758 68.3373 276.787 68.361C276.869 68.3792 276.922 68.3738 276.977 68.3947C276.922 68.3738 276.977 68.3948 277.006 68.4184C277.035 68.4421 277.061 68.4394 277.09 68.4631C277.146 68.484 277.175 68.5077 277.12 68.4868C277.149 68.5104 277.178 68.5341 277.204 68.5314C277.233 68.5551 277.294 68.6288 277.233 68.5551C277.262 68.5788 277.265 68.6052 277.294 68.6288C277.297 68.6552 277.357 68.729 277.326 68.6789C277.294 68.6288 277.357 68.729 277.36 68.7554C277.363 68.7818 277.392 68.8055 277.397 68.8583C277.403 68.9111 277.397 68.8583 277.395 68.8319C277.397 68.8583 277.4 68.8847 277.403 68.9111C277.411 68.9902 277.419 69.0694 277.427 69.1486C277.419 69.0694 277.433 69.2014 277.409 69.2305C277.391 69.3124 277.373 69.3944 277.378 69.4471C277.311 69.8276 277.907 69.9262 277.974 69.5458C278.041 69.1653 278.026 68.7666 277.83 68.4134C277.669 68.1366 277.384 67.9526 277.083 67.8769C276.424 67.6781 275.674 67.8889 275.064 68.1653C274.428 68.4444 273.756 68.8874 273.423 69.5353C273.091 70.1832 273.346 70.8505 273.919 71.2449C275.379 72.2414 277.651 71.3132 277.947 69.5485C278.038 69.1389 277.443 69.0403 277.378 69.4471Z" fill="#030140"/>
<path d="M277.748 62.2058C276.638 55.8375 276.328 51.2809 276.11 46.3411C274.538 47.0903 272.078 46.1971 270.371 45.8931C266.582 45.2704 264.227 45.647 260.459 46.5161C259.68 46.7032 258.635 47.3981 257.991 47.8647C256.552 48.867 255.669 50.3721 255.504 52.1232C255.237 54.6853 256.155 58.1654 257.5 59.6006C259.649 61.8599 264.019 61.6755 266.877 61.7807C268.346 61.8424 277.751 62.2322 277.748 62.2058Z" fill="#F24B78"/>
<path d="M288.991 109.013L294.183 159.3C294.183 159.3 300.08 157.411 307.514 154.695C314.949 151.98 320.025 149.349 328.654 143.256C336.116 137.977 334.994 127.101 334.994 127.101L326.661 51.7941C326.661 51.7941 318.273 62.0242 306.257 66.4927C294.241 70.9611 284.806 73.8827 284.806 73.8827L288.991 109.013Z" fill="#F24B78"/>
<path d="M323.794 55.7184L324.186 59.5196L325.2 69.3393L326.587 82.7755L328.105 97.4788L329.514 111.126L330.557 121.236C330.702 122.635 330.875 124.058 330.993 125.46C331.015 125.671 331.034 125.856 331.027 126.043C331.033 126.363 331.037 126.656 331.043 126.975C331.054 127.081 331.039 127.189 331.047 127.268C331.04 127.456 331.05 127.295 331.037 127.43C331.035 127.67 331.007 127.913 331.005 128.153C330.835 130.625 330.261 133.059 329.16 135.28C328.499 136.602 327.616 137.84 326.553 138.884C325.125 140.259 323.343 141.296 321.67 142.349C318.501 144.384 315.24 146.295 311.817 147.928C308.494 149.499 305.06 150.76 301.617 151.943C298.25 153.091 294.857 154.241 291.456 155.313C290.967 155.47 290.452 155.63 289.962 155.787C290.276 155.995 290.614 156.173 290.928 156.381L290.432 151.577L289.244 140.068L287.819 126.262L286.576 114.225C286.375 112.271 286.252 110.31 285.971 108.364C285.969 108.338 285.966 108.312 285.963 108.285C285.871 107.388 284.476 107.532 284.568 108.429L285.064 113.234L286.252 124.743L287.683 138.601L288.925 150.638C289.127 152.592 289.25 154.553 289.53 156.499C289.533 156.525 289.536 156.551 289.539 156.578C289.588 157.053 290.065 157.297 290.504 157.172C292.49 156.567 294.445 155.911 296.401 155.282C300.26 154.004 304.148 152.749 307.903 151.241C311.2 149.94 314.368 148.412 317.458 146.653C319.216 145.644 320.943 144.585 322.664 143.474C324.361 142.392 326.114 141.33 327.565 139.927C331.195 136.431 332.617 131.135 332.478 126.187C332.448 125.123 332.31 124.043 332.201 122.987L331.296 114.224L329.958 101.263L328.438 86.5329L326.983 72.4367L325.844 61.4027L325.269 55.8329L325.244 55.5953C325.096 54.6768 323.701 54.8209 323.794 55.7184Z" fill="#030140"/>
<path d="M160.429 59.6435C161.289 59.208 162.143 58.7196 162.643 57.8943C163.276 56.8151 163.108 55.4452 162.72 54.2581C161.719 51.2667 159.461 48.7252 156.608 47.3657C155.32 46.7516 150.3 43.9884 142.487 47.6762C135.638 50.9176 129.992 59.1039 134.461 69.6608C135.653 72.4457 145.026 66.8627 148.516 64.8484C152.258 62.7013 155.929 61.9222 160.429 59.6435Z" fill="#F24B78"/>
<path d="M155.184 44.6581C157.619 45.8207 159.608 47.8296 160.765 50.2714L165.519 49.9406L160.836 44.2613C159.924 43.155 158.5 43.2753 157.751 44.5265C157.39 45.1507 157.12 45.632 157.12 45.632C149.628 36.4543 148.431 38.2587 145.611 43.4053C150.85 42.3576 154.177 44.1751 155.184 44.6581Z" fill="#F24B78"/>
<path d="M247.244 67.1956C243.021 56.1864 221.87 56.6891 221.87 56.6891L224.737 84.4589L225.049 87.7349C218.15 90.2345 212.267 91.4821 212.267 91.4821L217.294 140.185C217.294 140.185 245.058 139.053 253.287 122.383L247.735 69.1191L247.244 67.1956Z" fill="#F24B78"/>
<path d="M-4.96642 86.9353C-2.97384 89.7443 1.17907 92.8638 9.41288 95.0552C19.7789 97.8001 62.7297 95.6073 62.7297 95.6073L71.6323 181.847C71.6323 181.847 34.0628 178.442 18.0354 174.974C2.52731 171.64 0.807665 152.662 0.807665 152.662L-5.66694 89.9422C-5.66694 89.9422 -5.77617 85.7917 -4.96642 86.9353Z" fill="#F24B78"/>
<path d="M250.13 50.5704C249.169 48.9889 248.26 47.402 247.298 45.8205C247.076 45.4699 246.582 45.841 246.805 46.1916C247.766 47.7731 248.675 49.36 249.636 50.9415C249.832 51.2948 250.326 50.9237 250.13 50.5704Z" fill="#030140"/>
<path d="M253.222 52.4388C254.108 52.0005 254.954 51.4329 255.713 50.7944C255.713 50.7944 256.075 53.5315 255.744 53.6724C255.463 53.7815 253.222 52.4388 253.222 52.4388Z" fill="#F24B78"/>
<path d="M253.122 53.0094C253.905 52.6084 254.654 52.1309 255.316 51.5824C255.436 51.4632 255.499 51.2967 255.377 51.1492C255.285 51.0254 255.066 50.9679 254.945 51.0871C254.31 51.6329 253.637 52.0758 252.904 52.445C252.751 52.5141 252.662 52.6833 252.734 52.8627C252.774 52.9919 252.972 53.1049 253.122 53.0094Z" fill="#030140"/>
<path d="M254.57 48.4847C254.787 50.3298 254.902 52.2121 254.855 54.0844C255.005 53.9889 255.152 53.867 255.302 53.7715C253.716 52.8414 252.104 51.914 250.521 51.0102C250.181 50.8053 249.922 51.3922 250.26 51.5708C251.845 52.5009 253.458 53.4283 255.041 54.332C255.268 54.4687 255.483 54.2331 255.487 54.0192C255.533 52.1469 255.448 50.2882 255.202 48.4194C255.135 48.0262 254.529 48.0887 254.57 48.4847Z" fill="#030140"/>
<path d="M254.735 47.5072C252.986 44.9932 251.237 42.4793 249.487 39.9653C249.268 39.6412 248.748 40.015 248.994 40.3364C250.743 42.8504 252.492 45.3643 254.241 47.8783C254.461 48.2024 254.955 47.8313 254.735 47.5072Z" fill="#030140"/>
<path d="M246.405 42.5779C247.517 44.3306 248.655 46.0805 249.767 47.8332C249.99 48.1838 250.484 47.8127 250.261 47.4621C249.149 45.7094 248.011 43.9594 246.899 42.2067C246.705 41.8799 246.185 42.2537 246.405 42.5779Z" fill="#030140"/>
<path d="M247.335 40.5076C248.701 42.6609 250.091 44.7851 251.458 46.9385C251.68 47.289 252.174 46.9179 251.951 46.5673C250.585 44.414 249.195 42.2898 247.829 40.1365C247.607 39.786 247.113 40.1571 247.335 40.5076Z" fill="#030140"/>
<path d="M249.648 49.7665C249.781 49.5126 249.912 49.2323 250.164 49.0995C250.414 48.9404 250.641 49.077 250.847 49.2692C251.259 49.6535 251.579 50.1807 251.739 50.6977C251.854 51.0328 252.372 50.8992 252.336 50.5561C252.285 50.0545 252.283 49.5211 252.363 49.006C252.399 48.8422 252.43 48.6256 252.651 48.7094C252.87 48.7669 253 48.9936 253.098 49.1702C253.315 49.4679 253.74 49.2106 253.652 48.8728C253.461 48.3057 253.828 47.7343 254.404 47.6481C254.796 47.5809 254.731 46.9474 254.338 47.0145C253.344 47.1706 252.752 48.1388 253.063 49.0937L253.618 48.7964C253.427 48.4959 253.187 48.2273 252.828 48.1042C252.499 48.0048 252.162 48.093 251.95 48.355C251.74 48.6434 251.725 49.0184 251.708 49.367C251.67 49.7711 251.687 50.1962 251.731 50.6185C251.939 50.5704 252.147 50.5223 252.328 50.4769C252.068 49.7568 251.609 48.9237 250.905 48.5429C250.564 48.3379 250.17 48.3787 249.817 48.5751C249.468 48.7979 249.264 49.1391 249.062 49.5068C248.887 49.8717 249.473 50.1314 249.648 49.7665Z" fill="#030140"/>
<path d="M255.085 55.0211C255.711 56.9574 257.054 58.6328 258.809 59.6523C260.703 60.7373 262.99 60.9814 265.084 60.3918C265.523 60.2664 265.268 59.5991 264.829 59.7245C262.916 60.2687 260.814 60.0055 259.088 59.0098C257.476 58.0824 256.278 56.5253 255.724 54.7684C255.599 54.3278 254.96 54.5805 255.085 55.0211Z" fill="#030140"/>
<path d="M255.558 47.7424C256.812 45.7188 259.128 44.706 261.384 44.3931C264.163 43.9995 266.943 44.6462 269.639 45.2483C271.326 45.6078 273.012 45.9673 274.753 46.081C275.209 46.114 275.322 45.4087 274.867 45.3757C269.27 45.0197 263.363 41.9211 257.907 44.7254C256.668 45.3601 255.645 46.2661 254.917 47.4618C254.663 47.8348 255.33 48.1128 255.558 47.7424Z" fill="#030140"/>
<path d="M158.923 36.2952C159.043 38.2303 157.961 39.8627 156.482 39.962C155.002 40.0614 153.704 38.568 153.587 36.6593C153.467 34.7241 154.549 33.0918 156.028 32.9924C157.508 32.893 158.806 34.3864 158.923 36.2952Z" fill="#F24B78"/>
<path d="M158.509 41.3002C158.482 41.3029 158.456 41.3056 158.43 41.3083C156.819 41.4213 155.404 39.8332 155.271 37.7661C155.137 35.6989 156.313 33.9501 157.925 33.8371C159.536 33.7242 160.95 35.3123 161.084 37.3794C161.238 39.391 160.088 41.1371 158.509 41.3002ZM157.895 34.3204C156.605 34.4536 155.644 35.9668 155.771 37.7144C155.904 39.5149 157.083 40.8871 158.404 40.8041C159.752 40.7183 160.711 39.1787 160.607 37.4019C160.474 35.6015 159.295 34.2292 157.974 34.3123C157.921 34.3177 157.921 34.3177 157.895 34.3204Z" fill="#030140"/>
<path d="M167.844 51.328L163.935 51.5982L163.909 51.0939L166.842 50.8979L162.463 45.5874C162.069 45.1212 161.592 44.877 161.065 44.9313C160.539 44.9857 160.092 45.2986 159.775 45.8382C159.097 47.002 159.097 47.002 159.047 47.0338L158.874 47.1584L158.723 46.9872C154.979 42.4116 152.734 40.509 151.228 40.6111C150.225 40.688 149.444 41.6223 148.603 43.0164L148.178 42.7667C149.111 41.2299 149.963 40.2082 151.176 40.1096C152.893 39.9857 155.045 41.7644 158.874 46.3847C158.987 46.1864 159.144 45.9034 159.324 45.5913C159.706 44.9115 160.303 44.5032 160.987 44.4325C161.648 44.391 162.318 44.6953 162.804 45.2854L167.844 51.328Z" fill="#030140"/>
<path d="M139.063 83.0586C142.318 83.1494 145.331 85.026 147.32 87.5419C149.674 90.5003 150.601 94.3263 150.746 98.0464C150.819 100.04 150.681 102.055 150.353 104.036C150.028 106.044 149.458 107.997 148.833 109.929C148.268 111.668 147.906 113.573 149.107 115.156C150.091 116.442 151.626 117.137 152.919 118.071C156.05 120.309 158.001 124.003 158.133 127.857C158.143 128.47 159.091 128.372 159.054 127.762C158.929 124.227 157.326 120.817 154.761 118.388C154.14 117.785 153.451 117.296 152.71 116.812C152.026 116.376 151.316 115.942 150.677 115.421C150.096 114.948 149.583 114.36 149.349 113.637C149.038 112.682 149.276 111.644 149.552 110.709C149.849 109.717 150.201 108.747 150.498 107.756C150.768 106.768 151.007 105.73 151.196 104.723C151.547 102.712 151.732 100.639 151.706 98.5875C151.651 94.6982 150.783 90.6792 148.484 87.4751C146.529 84.769 143.572 82.6731 140.224 82.1918C139.818 82.1269 139.391 82.1176 138.991 82.1056C138.725 82.1063 138.542 82.3921 138.566 82.6296C138.57 82.9227 138.823 83.0567 139.063 83.0586Z" fill="#030140"/>
<path d="M162.979 101.612C162.145 101.005 161.899 99.9098 161.693 98.9439C161.505 97.8962 161.419 96.8112 161.468 95.739C161.59 93.5655 162.248 91.4432 163.358 89.5679C163.495 89.3404 163.333 89.0636 163.135 88.9506C162.885 88.8431 162.659 88.9732 162.52 89.1742C160.611 92.3326 160.032 96.2607 160.932 99.8228C161.162 100.76 161.578 101.704 162.36 102.317C162.877 102.69 163.441 101.965 162.979 101.612Z" fill="#030140"/>
<path d="M134.432 71.1845C139.558 68.7878 144.711 66.3884 149.84 64.0181C154.969 61.6478 160.07 59.2538 165.199 56.8835C168.093 55.5442 170.985 54.1786 173.906 52.8366C174.566 52.5284 174.164 51.476 173.505 51.7842C168.378 54.1809 163.225 56.5803 158.096 58.9506C152.967 61.3209 147.867 63.7149 142.738 66.0852C139.843 67.4245 136.951 68.7901 134.03 70.1321C133.368 70.414 133.772 71.4927 134.432 71.1845Z" fill="#030140"/>
<path d="M162.074 57.793C162.274 54.8377 161.302 51.87 159.441 49.5544C157.428 47.0676 154.45 45.5342 151.263 45.3296C149.306 45.1848 147.345 45.5206 145.565 46.318C145.032 46.5598 145.361 47.4329 145.895 47.191C148.792 45.8782 152.2 45.8999 155.054 47.2594C157.57 48.4403 159.473 50.6448 160.459 53.2376C160.978 54.6514 161.238 56.1451 161.128 57.6506C161.132 58.2103 162.028 58.3846 162.074 57.793Z" fill="#030140"/>
<path d="M163.709 57.9176C165.193 61.206 166.679 64.5208 168.162 67.8092C168.918 69.4652 169.677 71.1477 170.407 72.8064C170.681 73.3918 171.02 74.1038 170.878 74.7854C170.753 75.3852 170.222 75.6534 169.67 75.7105C169.038 75.7757 168.39 75.6826 167.768 75.5867C166.933 75.4861 166.051 75.4438 165.2 75.4516C163.475 75.4962 161.813 75.8813 160.195 76.4484C158.809 76.9383 157.174 77.5874 155.875 76.601C154.808 75.804 154.295 74.443 153.93 73.2268C152.91 69.7839 153.002 66.0394 154.167 62.6377C154.349 62.0853 153.511 61.6916 153.328 62.244C152.226 65.4792 152.006 69.0234 152.776 72.3588C153.113 73.818 153.566 75.372 154.513 76.5548C154.941 77.0975 155.493 77.5474 156.158 77.799C156.962 78.1161 157.81 78.082 158.644 77.9158C159.502 77.7206 160.343 77.3669 161.166 77.0952C162.042 76.818 162.953 76.6173 163.845 76.4985C164.764 76.377 165.69 76.3347 166.602 76.4007C167.379 76.4539 168.166 76.6127 168.941 76.6395C169.61 76.6771 170.32 76.6037 170.922 76.2482C171.548 75.8635 171.845 75.1391 171.824 74.4209C171.795 73.6236 171.453 72.8852 171.14 72.1706C170.728 71.2793 170.346 70.4117 169.935 69.5204L164.553 57.5904C164.312 57.055 163.441 57.385 163.709 57.9176Z" fill="#030140"/>
<path d="M167.489 76.4958C168.336 78.516 169.241 80.5835 169.339 82.8145C169.413 84.5676 168.946 86.4833 167.61 87.715C165.232 89.9347 161.235 89.3602 158.835 87.5003C155.799 85.1459 154.492 81.2524 153.511 77.672C152.953 75.622 152.446 73.5401 151.273 71.7137C150.796 70.9625 150.191 70.2513 149.468 69.6857C148.741 69.0937 147.908 68.7529 147.022 68.4175C146.331 68.1687 145.585 67.8989 144.835 68.1097C144.086 68.3204 143.496 69.0483 143.193 69.7199C142.56 71.0657 142.822 72.8262 143.886 73.8635C144.153 74.1294 144.465 74.3107 144.8 74.4628C145.356 74.6989 145.722 73.8607 145.192 73.622C143.915 73.1135 143.478 71.4512 143.966 70.2536C144.198 69.6694 144.712 68.9761 145.402 68.9582C145.694 68.9548 146.021 69.0277 146.298 69.1325C146.712 69.2766 147.155 69.4443 147.571 69.6147C149.264 70.2936 150.436 71.8534 151.187 73.4566C152.076 75.3658 152.452 77.4613 153.056 79.4531C154.106 82.9197 155.715 86.6487 158.9 88.6409C161.547 90.3152 165.469 90.6839 167.987 88.5299C169.354 87.3482 170.078 85.5928 170.185 83.7943C170.338 81.6709 169.699 79.6026 168.936 77.627C168.724 77.1154 168.514 76.6302 168.302 76.1185C168.116 75.6042 167.271 75.9314 167.489 76.4958Z" fill="#030140"/>
<path d="M145.643 75.4162C146.743 78.344 146.605 81.6398 145.327 84.4662C145.021 85.1114 146.052 85.5652 146.332 84.9227C147.74 81.816 147.846 78.2035 146.663 74.9908C146.437 74.3471 145.414 74.7462 145.643 75.4162Z" fill="#030140"/>
<path d="M143.938 122.04C146.428 117.807 145.064 112.586 147.105 108.133C149.188 103.57 153.091 99.8853 157.769 98.0418C160.48 96.9882 163.794 96.6194 166.057 98.4401C167.594 99.6687 168.304 101.65 168.558 103.598C169.097 108.051 167.916 112.068 164.696 115.148C164.21 115.598 162.426 116.61 161.336 117.656C160.126 118.821 160.032 119.711 161.382 121.706C162.7 123.651 165.033 122.797 165.446 121.9C165.027 125.572 165.663 127.614 167.457 130.817C169.254 134.046 172.009 153.264 164.507 157.133C157.005 161.002 154.4 153.027 150.479 148.55C146.558 144.072 144.003 141.481 138.517 145.809C135.345 148.325 129.64 147.179 127.933 143.007C125.76 137.682 128.89 133.731 130.85 131.581C135.835 126.264 143.059 123.571 143.938 122.04Z" fill="#F24B78"/>
<path d="M163.306 99.3643C165.286 98.7063 167.426 99.0724 169.275 99.9754C171.261 100.918 172.83 102.463 174.179 104.191C175.621 106.043 176.786 108.057 178.028 110.037C179.403 112.269 180.803 114.499 182.178 116.731C182.562 117.359 182.943 117.96 183.327 118.587C183.677 119.138 184.029 119.715 184.228 120.361C184.42 120.929 184.427 121.515 184.137 122.052C183.912 122.448 183.497 122.811 183.012 122.755C182.662 122.711 182.35 123.036 182.493 123.395C183.351 125.521 184.252 127.802 183.828 130.14C183.66 131.091 183.25 132.014 182.552 132.727C181.854 133.439 180.936 133.827 180.013 134.162C178.141 134.836 176.17 135.333 174.849 136.963C173.595 138.48 173.086 140.507 173.075 142.455C173.068 145.231 174.194 147.889 175.177 150.455C175.395 151.02 176.266 150.69 176.048 150.125C175.142 147.791 174.154 145.439 174.027 142.917C173.912 141.035 174.369 139.014 175.601 137.553C176.928 135.975 178.968 135.631 180.782 134.91C181.703 134.548 182.586 134.084 183.281 133.345C184.002 132.603 184.436 131.652 184.68 130.666C185.29 128.069 184.304 125.476 183.364 123.065C183.198 123.269 183.036 123.499 182.844 123.706C183.975 123.829 184.872 122.989 185.166 121.972C185.544 120.733 184.91 119.491 184.269 118.436C182.794 116.001 181.24 113.573 179.741 111.167C178.34 108.937 177.013 106.646 175.489 104.509C174.092 102.573 172.413 100.745 170.321 99.5472C168.089 98.2836 165.399 97.7343 162.903 98.5522C162.384 98.6858 162.74 99.5561 163.306 99.3643Z" fill="#030140"/>
<path d="M142.909 84.2356C142.742 80.3043 140.605 76.87 138.596 73.6359C136.525 70.3281 134.362 66.8965 134.213 62.8833C134.134 60.5705 134.716 58.2161 135.981 56.298C136.303 55.8112 135.601 55.1901 135.255 55.706C132.881 59.2591 132.786 63.7509 134.283 67.6783C135.733 71.4236 138.322 74.5979 140.152 78.144C141.151 80.0951 141.896 82.1525 141.987 84.3307C141.997 84.9432 142.945 84.8454 142.909 84.2356Z" fill="#030140"/>
<path d="M135.504 81.8253C132.749 81.6828 130.026 82.3641 127.64 83.7309C125.406 85.0287 123.582 86.951 122.382 89.2359C121.134 91.579 120.679 94.1338 120.738 96.7688C120.795 99.3775 121.244 102.186 120.06 104.629C119.731 105.303 119.296 105.988 119.214 106.744C119.127 107.446 119.33 108.119 119.834 108.627C121.05 109.836 122.839 109.384 124.251 108.892C124.051 108.752 123.826 108.642 123.626 108.503C123.589 111.495 123.746 115.08 126.538 116.873C127.108 117.241 127.746 117.495 128.421 117.585C129.23 117.689 130.035 117.499 130.813 117.312C131.566 117.127 132.339 116.887 133.114 116.914C133.809 116.949 134.45 117.23 134.999 117.653C136.44 118.732 137.123 120.449 137.771 122.089C137.808 121.925 137.82 121.791 137.857 121.627C136.131 123.726 134.432 125.822 132.707 127.921C132.329 128.387 133.055 128.979 133.433 128.513C135.158 126.414 136.857 124.318 138.583 122.219C138.677 122.102 138.711 121.912 138.668 121.757C138.092 120.295 137.483 118.784 136.379 117.618C135.364 116.549 134.018 115.887 132.542 116.013C131.038 116.141 129.559 117.014 128.022 116.559C126.786 116.18 125.853 115.129 125.335 113.982C124.545 112.25 124.58 110.272 124.6 108.402C124.593 108.083 124.232 107.933 123.974 108.013C122.92 108.362 121.405 108.892 120.506 107.918C119.639 106.993 120.745 105.599 121.132 104.705C122.143 102.386 121.876 99.7995 121.78 97.3282C121.734 96.1058 121.74 94.8779 121.936 93.6838C122.138 92.5426 122.474 91.4141 122.952 90.3776C123.926 88.2227 125.489 86.354 127.428 85.0333C129.766 83.458 132.607 82.6312 135.415 82.7682C135.681 82.7674 135.909 82.6638 135.961 82.3917C135.937 82.1541 135.772 81.8509 135.504 81.8253Z" fill="#030140"/>
<path d="M151.869 100.678C151.041 102.711 149.971 104.716 149.079 104.835C147.952 105.004 151.387 102.969 149.39 99.6003C148.132 97.4625 146.055 97.7036 146.055 97.7036C146.055 97.7036 147.751 90.9389 144.006 87.9106C140.288 84.8796 136.883 86.9386 133.92 89.1653C130.958 91.3919 130.501 92.6396 126.9 94.3453C122.893 96.2529 119.178 96.3429 117.519 92.3791C116.393 89.7207 116.197 86.5395 118.012 84.2713C119.923 81.913 122.771 82.1793 122.771 82.1793C122.771 82.1793 120.585 77.4961 124.353 75.3463C128.122 73.1965 131.339 74.4651 134.272 76.0831C137.206 77.7011 142.565 80.1359 145.078 81.7974C147.591 83.4588 149.493 85.3967 150.619 88.0551C151.774 90.7371 153.268 97.2258 151.869 100.678Z" fill="#030140"/>
<path d="M124.854 70.9194L123.538 58.1695L121.453 37.9756L120.971 33.3033C120.933 32.9338 120.581 32.6232 120.186 32.664C116.159 33.0797 112.111 33.551 108.092 34.0459C98.8949 35.1554 89.7092 36.3704 80.5661 37.7411C70.4546 39.2652 60.333 40.9503 50.3504 43.208C38.9891 45.7681 27.7095 49.1202 16.9419 53.5665C12.5034 55.412 8.05768 57.445 4.04861 60.0998C0.436183 62.4736 -2.56804 65.585 -3.99644 69.7876C-4.13982 70.2026 -4.28048 70.6439 -4.36849 71.0799C-4.5418 71.9782 -3.16118 72.2091 -2.96156 71.3081C-2.64307 69.7546 -1.86893 68.234 -1.04665 66.9219C0.0769376 65.1786 1.49646 63.7248 3.15109 62.4868C6.72809 59.7699 10.8579 57.7695 14.9542 55.9594C25.5893 51.2599 36.8344 47.8314 48.1295 45.1447C57.8933 42.8295 67.8251 41.1106 77.7497 39.5792C87.0715 38.1367 96.4361 36.8498 105.817 35.7214C109.023 35.3371 112.255 34.95 115.464 34.5921C117.014 34.4054 118.604 34.348 120.147 34.0821C120.226 34.0739 120.278 34.0685 120.357 34.0603C120.096 33.8472 119.834 33.6341 119.573 33.421L120.889 46.1708L122.974 66.3647L123.456 71.037C123.554 71.9873 124.949 71.8433 124.854 70.9194Z" fill="#030140"/>
<path d="M72.0025 117.914L75.6604 117.269C78.5868 116.754 81.5104 116.212 84.4104 115.699C87.9368 115.068 91.4631 114.437 95.0157 113.804C98.071 113.248 101.129 112.719 104.184 112.164C105.674 111.903 107.137 111.646 108.624 111.359C108.65 111.356 108.676 111.353 108.676 111.353C109.042 111.289 109.354 110.963 109.313 110.567C109.275 110.198 108.921 109.861 108.529 109.928L104.871 110.572C101.945 111.088 99.0212 111.63 96.1212 112.142C92.5949 112.773 89.0685 113.404 85.5159 114.038C82.4606 114.593 79.4027 115.122 76.3474 115.678C74.8579 115.938 73.3947 116.196 71.908 116.483C71.8816 116.486 71.8553 116.488 71.8553 116.488C71.4895 116.553 71.1773 116.878 71.2182 117.274C71.2563 117.644 71.6104 117.981 72.0025 117.914Z" fill="#030140"/>
<path d="M-2.52837 86.8436L-1.88527 93.0734L-0.34837 107.961L1.51553 126.017L3.13146 141.671C3.39851 144.258 3.66556 146.845 3.93261 149.431C4.21873 152.203 4.92602 154.931 5.91196 157.524C8.15258 163.509 12.224 168.931 18.2521 171.404C21.2794 172.639 24.6251 173.093 27.8211 173.644C31.3939 174.236 34.9611 174.774 38.5492 175.258C45.9969 176.276 53.4546 177.134 60.904 177.912C65.5033 178.398 70.0999 178.857 74.6937 179.29C74.9098 179.321 75.1231 179.326 75.3654 179.354C75.8211 179.387 76.2413 179.077 76.1896 178.575L75.9525 176.279L75.3039 169.996L74.3475 160.731L73.1784 149.406L71.8977 137L70.606 124.487L69.3989 112.793L68.3797 102.921L67.6467 95.82C67.5322 94.7113 67.4414 93.5735 67.3006 92.4675C67.2952 92.4147 67.2897 92.3619 67.287 92.3355C67.2461 91.9396 66.9003 91.6818 66.5027 91.6962C63.6435 91.8313 60.7843 91.9664 57.9223 92.075C51.6139 92.2994 45.3 92.471 38.9753 92.537C32.6505 92.603 26.3175 92.5897 20.0145 92.0932C17.8968 91.9383 15.7474 91.7334 13.7024 91.2508C9.74657 90.2986 5.64915 88.7474 2.38582 86.2563C0.508612 84.8227 -1.08815 83.0133 -1.8671 80.8794C-1.93882 80.7001 -1.98422 80.518 -2.05594 80.3387C-2.09044 80.2622 -2.10134 80.1566 -2.13584 80.0801C-2.13856 80.0537 -2.18396 79.8717 -2.13856 80.0537C-2.14401 80.001 -2.17578 79.9509 -2.18123 79.8981C-2.24026 79.584 -2.29928 79.27 -2.33198 78.9532C-2.3565 78.7156 -2.35471 78.4753 -2.35291 78.2351C-2.34566 78.0476 -2.34473 78.3142 -2.35018 78.2615C-2.35291 78.2351 -2.35836 78.1823 -2.33476 78.1531C-2.34294 78.074 -2.32206 78.0184 -2.33024 77.9393C-2.33569 77.8865 -2.31481 77.8309 -2.32026 77.7781C-2.14696 76.8799 -3.5539 76.6516 -3.7272 77.5499C-3.88236 78.3663 -3.76338 79.261 -3.60266 80.0448C-3.14231 82.1849 -1.99304 84.0405 -0.502498 85.5941C2.11911 88.3114 5.62746 90.0835 9.13668 91.3487C11.8444 92.323 14.5457 92.9779 17.3986 93.297C23.5337 93.9709 29.7587 93.9686 35.931 93.9717C42.5271 93.9578 49.136 93.8091 55.7631 93.5785C58.1485 93.4923 60.5602 93.4035 62.9429 93.2909C64.1092 93.2505 65.3074 93.2602 66.4919 93.1379C66.5446 93.1325 66.5972 93.1271 66.6499 93.1216C66.3884 92.9085 66.127 92.6954 65.8656 92.4823L66.1026 94.7788L66.7512 101.061L67.7077 110.327L68.8767 121.651L70.1574 134.058L71.4491 146.57L72.659 158.291L73.6781 168.163L74.4084 175.238C74.5229 176.346 74.5611 177.489 74.7545 178.59C74.76 178.643 74.7654 178.696 74.7681 178.722C75.0332 178.455 75.3272 178.211 75.5923 177.943C72.3418 177.639 69.0623 177.31 65.8091 176.979C58.71 176.245 51.6055 175.457 44.5454 174.585C37.5643 173.705 30.5514 172.775 23.6265 171.409C21.9981 171.097 20.3643 170.732 18.8348 170.09C17.2526 169.453 15.7775 168.564 14.4441 167.502C12.0095 165.565 10.0968 163.015 8.69423 160.252C6.95757 156.829 5.78366 153.189 5.39671 149.44C5.20869 147.619 5.02339 145.824 4.83536 144.003L3.36114 129.722L1.50813 111.772L-0.145941 95.7484L-1.04519 87.0374L-1.08607 86.6414C-1.22591 85.8021 -2.62102 85.9461 -2.52837 86.8436Z" fill="#030140"/>
<path d="M229.31 53.2532L228.436 44.7797L227.04 31.2643L226.722 28.1758C226.509 28.4378 226.297 28.6999 226.085 28.9619C227.844 28.9937 229.6 28.9992 231.359 29.031C235.62 29.0714 239.883 29.1382 244.144 29.1785C249.31 29.2321 254.48 29.3121 259.646 29.3657C264.176 29.4317 268.729 29.4686 273.258 29.5346C280.397 29.6246 287.542 30.0342 294.647 30.8215C299.786 31.3847 304.939 32.08 309.921 33.4333C312.304 34.0944 314.729 34.9111 316.838 36.2675C318.975 37.6475 320.662 39.5543 321.65 41.9068C322.178 43.1595 322.612 44.5287 322.701 45.9067C322.776 46.8862 322.587 47.8927 322.229 48.81C321.285 51.2553 319.422 53.315 317.498 55.0344C314.988 57.2676 312.146 59.1084 309.194 60.667C305.787 62.4593 302.18 63.8456 298.566 65.179C293.188 67.2015 287.744 69.0974 282.26 70.8641C281.976 70.9468 281.694 71.0558 281.41 71.1385C281.126 71.2212 280.925 71.5888 280.955 71.8792L281.269 75.1816C281.518 77.8504 281.764 80.4929 282.013 83.1617C282.316 86.3585 282.593 89.558 282.897 92.7548C283.157 95.5292 283.414 98.2772 283.674 101.052C283.769 101.976 283.835 102.876 283.931 103.8C283.974 104.222 283.968 104.676 284.038 105.096C284.041 105.122 284.043 105.149 284.043 105.149C284.308 104.881 284.602 104.637 284.867 104.37C280.988 104.157 277.111 103.97 273.211 103.812C267.335 103.592 261.458 103.612 255.57 103.526C253.387 103.511 251.201 103.47 249.015 103.429C248.641 103.414 248.343 103.872 248.378 104.215C248.422 104.637 248.762 104.842 249.163 104.854C254.253 104.942 259.367 105.001 264.473 104.981C269.713 104.974 274.93 105.262 280.171 105.522C281.67 105.607 283.139 105.669 284.638 105.754C285.094 105.787 285.514 105.477 285.462 104.976L285.148 101.673C284.899 99.0043 284.653 96.3619 284.404 93.693C284.1 90.4962 283.823 87.2967 283.52 84.1C283.26 81.3255 283.003 78.5775 282.743 75.8031C282.648 74.8792 282.581 73.979 282.486 73.055C282.442 72.6327 282.449 72.1785 282.379 71.7589C282.376 71.7325 282.373 71.7061 282.373 71.7061C282.214 71.9627 282.078 72.1902 281.918 72.4467C286.042 71.1673 290.15 69.7294 294.229 68.2679C301.362 65.7174 308.655 63.1771 314.936 58.8204C317.445 57.0941 319.842 55.0592 321.692 52.6272C323.118 50.7192 324.266 48.4397 324.173 45.9949C324.111 44.6141 323.695 43.163 323.216 41.8785C322.738 40.5939 322.052 39.3575 321.195 38.2721C319.602 36.2489 317.427 34.7659 315.086 33.7271C312.659 32.6437 310.087 31.9488 307.499 31.3622C305.238 30.8487 302.964 30.4698 300.669 30.1464C293.567 29.1188 286.402 28.5245 279.244 28.2497C274.143 28.0559 269.034 28.0497 263.947 27.988C258.725 27.9134 253.506 27.8653 248.284 27.7908C243.57 27.7438 238.854 27.6704 234.14 27.6234C231.557 27.5966 228.947 27.5726 226.364 27.5458C226.23 27.533 226.124 27.5438 225.99 27.531C225.616 27.5163 225.317 27.974 225.353 28.3171L226.228 36.7906L227.623 50.306L227.942 53.3945C227.984 54.3238 229.406 54.1771 229.31 53.2532Z" fill="#030140"/>
<path d="M220.622 77.8406L219.774 69.631L218.426 56.5644L218.118 53.5815C217.826 53.8517 217.535 54.1219 217.244 54.3921C218.26 54.4472 219.256 54.5579 220.281 54.6922C222.652 54.981 225.01 55.4045 227.329 55.9655C230.004 56.6231 232.561 57.4262 235.091 58.7391C235.4 58.894 235.682 59.0516 235.967 59.2356C236.307 59.4406 236.421 59.5089 236.735 59.7166C237.276 60.0609 237.767 60.4371 238.263 60.866C238.496 61.0555 238.731 61.2713 238.94 61.4899C238.998 61.5372 239.056 61.5846 239.09 61.6611C239.151 61.7348 239.088 61.6347 239.061 61.6374C239.09 61.6611 239.122 61.7111 239.151 61.7348C239.27 61.8559 239.363 61.9798 239.455 62.1036C239.638 62.3249 239.823 62.5725 239.982 62.8229C240.048 62.9495 240.138 63.0469 240.204 63.1735C240.236 63.2235 240.27 63.3 240.302 63.3501C240.331 63.3738 240.337 63.4266 240.366 63.4502C240.429 63.5504 240.302 63.3501 240.366 63.4502C240.634 63.9829 240.849 64.5209 241.014 65.0908C241.019 65.1436 241.059 65.2728 241.019 65.1436C241.028 65.2227 241.062 65.2992 241.068 65.352C241.11 65.5077 241.127 65.6661 241.143 65.8244C241.176 66.1412 241.206 66.4316 241.212 66.7511C241.22 66.8303 241.202 66.9122 241.21 66.9914C241.213 67.0178 241.218 67.0705 241.221 67.0969C241.234 66.9622 241.218 67.0705 241.221 67.0969C241.214 67.2844 241.204 67.4455 241.17 67.6358C241.124 67.9607 241.078 68.2856 241.005 68.6132C240.966 68.7507 240.953 68.8854 240.914 69.0228C240.896 69.1047 240.875 69.1602 240.857 69.2421C240.821 69.4059 240.881 69.213 240.816 69.3531C240.711 69.6307 240.61 69.9346 240.505 70.2122C240.374 70.4925 240.247 70.7992 240.09 71.0821C240.024 71.2223 239.956 71.336 239.888 71.4498C239.841 71.508 239.823 71.5899 239.776 71.6481C239.752 71.6772 239.707 71.7619 239.776 71.6481C239.752 71.6772 239.731 71.7328 239.707 71.7619C239.364 72.3042 238.966 72.8255 238.565 73.3205C237.615 74.4323 236.744 75.2692 235.586 76.1624C233.152 78.0945 230.49 79.6232 227.7 80.9516C224.861 82.3118 221.948 83.4663 218.968 84.4942C216.527 85.3331 214.078 86.0928 211.595 86.776C210.74 86.9977 209.911 87.2166 209.056 87.4383C208.977 87.4464 208.901 87.481 208.822 87.4891C208.795 87.4918 209.03 87.441 208.874 87.4837C208.822 87.4891 208.795 87.4918 208.745 87.5237C208.617 87.5637 208.485 87.5772 208.356 87.6172C208.175 87.6627 207.993 87.7081 207.835 87.7244C207.782 87.7298 207.733 87.7616 207.654 87.7698C207.264 87.8634 206.949 88.1626 206.993 88.585L207.494 93.4421L208.699 105.11L210.14 119.074L211.399 131.269C211.601 133.223 211.753 135.208 212.01 137.182C212.012 137.209 212.015 137.235 212.018 137.261C212.061 137.684 212.433 137.939 212.831 137.925C214.103 137.873 215.393 137.74 216.653 137.583C219.778 137.181 222.883 136.593 225.94 135.798C229.747 134.791 233.494 133.47 236.974 131.617C240.683 129.66 244.121 127.144 246.761 123.857C247.446 123.013 248.046 122.124 248.587 121.188C248.86 120.733 249.132 120.278 249.349 119.802C249.438 119.632 249.471 119.442 249.479 119.255C249.464 118.856 249.394 118.436 249.353 118.04L248.675 111.468L247.645 101.489L246.527 90.6666L245.593 81.6123L245.099 76.8344L245.078 76.6232C244.98 75.6729 243.506 75.8251 243.604 76.7754L244.042 81.0254L245.091 91.1883L246.364 103.516L247.465 114.18L247.827 117.691C247.885 118.245 247.892 118.832 247.999 119.354C248.002 119.381 248.004 119.407 248.007 119.433C248.02 119.299 248.062 119.188 248.074 119.053C246.532 122.147 244.223 124.786 241.545 126.93C238.84 129.077 235.815 130.696 232.652 132.01C231.095 132.651 229.53 133.213 227.931 133.698C226.461 134.143 224.932 134.541 223.53 134.873C221.112 135.416 218.656 135.856 216.185 136.138C215.421 136.216 214.632 136.298 213.868 136.377C213.5 136.415 213.126 136.4 212.786 136.462C212.76 136.465 212.76 136.465 212.734 136.467L213.547 137.13L213.046 132.273L211.841 120.606L210.394 106.589L209.133 94.3668L208.718 90.3544C208.653 89.7209 208.64 89.0819 208.522 88.4538C208.52 88.4274 208.517 88.401 208.514 88.3746C208.302 88.6366 208.066 88.9278 207.853 89.1898C208.843 88.981 209.827 88.7193 210.813 88.4841C213.121 87.8991 215.417 87.2085 217.682 86.4678C220.667 85.4927 223.612 84.3883 226.486 83.1045C229.462 81.7835 232.364 80.2567 235.017 78.3821C237.4 76.7222 239.612 74.7063 241.136 72.2013C242.521 69.8974 243.135 67.0861 242.439 64.4634C241.783 61.9701 239.901 59.9767 237.787 58.5675C235.385 56.948 232.643 55.8971 229.896 55.0602C227.371 54.3071 224.762 53.776 222.167 53.377C220.681 53.1569 219.2 52.9895 217.725 52.875C217.646 52.8832 217.591 52.8622 217.512 52.8704C217.03 52.8401 216.584 53.153 216.638 53.6809L217.486 61.8904L218.834 74.9571L219.142 77.94C219.246 78.943 220.72 78.7909 220.622 77.8406Z" fill="#030140"/>
<path d="M166.239 60.0042C167.756 60.0077 169.244 59.9875 170.76 59.991C170.866 59.9801 170.936 59.8928 170.926 59.7872L170.615 56.7779L169.874 49.5979L168.972 40.8604L168.195 33.3372L167.939 30.8559C167.898 30.4599 167.883 30.0612 167.816 29.668C167.814 29.6416 167.814 29.6416 167.811 29.6152C167.8 29.5096 167.713 29.4386 167.608 29.4494L164.756 29.6637C162.487 29.8446 160.215 29.9991 157.92 30.1827C155.148 30.3888 152.402 30.5922 149.633 30.8248C147.258 31.0165 144.881 31.1819 142.506 31.3737C141.714 31.4288 140.948 31.4812 140.158 31.5627C139.79 31.6008 139.389 31.5887 139.024 31.6532C138.997 31.6559 138.997 31.6559 138.971 31.6586C138.866 31.6695 138.795 31.7568 138.806 31.8624L139.242 36.086L139.937 42.8172L140.095 44.3483C140.119 44.5859 140.461 44.5505 140.437 44.313L140.001 40.0894L139.306 33.3581L139.148 31.8271C139.101 31.8853 139.054 31.9435 138.983 32.0309C139.933 31.9595 140.883 31.888 141.834 31.8166C144.103 31.6357 146.375 31.4812 148.671 31.2976C151.443 31.0915 154.188 30.8881 156.958 30.6555C159.332 30.4638 161.709 30.2984 164.084 30.1066C164.876 30.0515 165.642 29.9991 166.432 29.9176L167.172 29.8679C167.277 29.857 167.438 29.8671 167.567 29.8271C167.593 29.8244 167.593 29.8244 167.619 29.8217L167.416 29.6559L167.727 32.6652L168.471 39.8717L169.373 48.6091L170.149 56.1324L170.405 58.6137L170.484 59.3792C170.495 59.4848 170.488 59.6723 170.525 59.7752C170.528 59.8016 170.528 59.8016 170.531 59.828L170.696 59.6242C169.179 59.6207 167.691 59.6408 166.175 59.6374C165.99 59.6564 166.026 59.9995 166.239 60.0042Z" fill="#030140"/>
<path d="M189.268 55.0124C189.317 54.7139 192.764 57.9596 195.591 59.8288C195.818 59.9654 196.312 60.368 196.389 60.6001C196.538 61.0116 196.178 61.3955 195.837 61.6975C194.102 63.1839 192.395 64.694 190.66 66.1804C190.466 66.3605 189.969 66.7052 189.421 66.5484C188.899 66.3889 189.033 65.628 189.011 65.1501C188.893 61.694 189.118 55.8816 189.268 55.0124Z" fill="#F24B78"/>
<path d="M191.414 55.9646C192.806 55.5275 194.266 55.7504 195.576 56.3354C196.636 56.8129 197.45 57.4759 198.109 58.4483C199.014 59.7422 199.327 61.2305 199.009 62.7841C198.745 64.0919 198.125 65.3031 197.246 66.3275C195.466 68.4055 192.749 69.4063 190.068 68.6959C187.499 68.0274 185.221 65.8081 184.94 63.0892C184.627 60.0535 186.858 57.182 189.76 56.4289C190.173 56.3063 189.92 55.6653 189.507 55.788C186.658 56.5357 184.406 59.196 184.258 62.1459C184.092 65.1777 186.179 67.8702 188.903 69.0029C190.293 69.5798 191.829 69.7681 193.286 69.4575C194.718 69.1497 196.026 68.4276 197.095 67.437C199.302 65.3683 200.62 61.8974 199.233 59.026C198.585 57.6521 197.541 56.5594 196.193 55.8715C194.621 55.0734 192.811 54.8067 191.136 55.3265C190.749 55.4464 191.002 56.0873 191.414 55.9646Z" fill="#030140"/>
<path d="M189.623 56.3897C191.04 57.2306 192.362 58.1879 193.708 59.116C194.339 59.5578 194.967 59.9732 195.622 60.3858C195.764 60.4778 196.07 60.6063 196.163 60.7302C196.869 61.6444 195.847 62.3101 195.364 62.7868C194.758 63.3563 194.152 63.9258 193.519 64.498C193.372 64.6199 192.612 65.4987 192.427 65.5178C191.664 65.5966 191.678 64.4479 191.635 64.0255C191.462 62.0958 191.29 60.1661 191.117 58.2364C191.076 57.8404 190.471 57.9029 190.512 58.2989C190.649 59.8854 190.783 61.4456 190.947 63.0294C191.034 63.8741 190.842 65.3613 191.444 66.0461C191.809 66.4886 192.201 66.4215 192.651 66.135C193.822 65.3737 194.858 64.0663 195.903 63.1047C196.365 62.6836 197.287 62.0815 197.374 61.3788C197.471 60.5151 196.424 60.1696 195.854 59.8016C193.859 58.5136 191.953 57.0563 189.91 55.8265C189.544 55.6242 189.282 56.1848 189.623 56.3897Z" fill="#030140"/>
<path d="M176.434 52.8424L177.153 59.8112L178.298 70.8981L178.559 73.4322C178.57 73.5378 178.655 73.5824 178.763 73.598C179.768 73.5475 180.777 73.5234 181.782 73.473C184.194 73.3841 186.603 73.2688 188.989 73.1826C191.903 73.0685 194.841 72.9252 197.756 72.8111C200.273 72.7114 202.79 72.6116 205.304 72.4854C206.126 72.454 206.973 72.4198 207.795 72.3884C208.192 72.374 208.593 72.3861 208.988 72.3453C209.014 72.3426 209.014 72.3426 209.04 72.3399C209.146 72.329 209.216 72.2417 209.205 72.1361L208.467 64.9824L207.287 53.5524L207.017 50.9391C207.006 50.8335 206.919 50.7625 206.814 50.7733C205.808 50.8238 204.805 50.9007 203.826 50.9484C201.42 51.0901 199.016 51.2582 196.61 51.3999C193.703 51.5932 190.794 51.7601 187.888 51.9534C185.376 52.106 182.838 52.2613 180.327 52.4138C179.508 52.4716 178.66 52.5058 177.842 52.5636C177.444 52.578 177.044 52.566 176.652 52.6331C176.625 52.6358 176.625 52.6358 176.599 52.6386C176.362 52.663 176.397 53.0062 176.634 52.9817C177.64 52.9313 178.643 52.8544 179.649 52.8039C182.055 52.6623 184.459 52.4942 186.865 52.3525C189.771 52.1592 192.68 51.9922 195.587 51.7989C198.098 51.6464 200.636 51.4911 203.148 51.3385L205.633 51.1887C205.896 51.1615 206.162 51.1608 206.399 51.1363C206.531 51.1227 206.694 51.1592 206.797 51.1219C206.823 51.1192 206.823 51.1192 206.849 51.1165L206.646 50.9507L207.385 58.1044L208.564 69.5344L208.834 72.1477L208.999 71.9439C207.994 71.9944 206.985 72.0184 205.98 72.0689C203.568 72.1578 201.159 72.2731 198.773 72.3593C195.859 72.4734 192.921 72.6166 190.006 72.7308C187.489 72.8305 184.972 72.9303 182.458 73.0564C181.636 73.0879 180.789 73.122 179.967 73.1535C179.701 73.1543 179.438 73.1814 179.172 73.1822C179.04 73.1958 178.877 73.1593 178.774 73.1966C178.748 73.1993 178.748 73.1993 178.722 73.202C178.78 73.2494 178.838 73.2967 178.925 73.3678L178.206 66.3989L177.061 55.3121L176.8 52.7779C176.78 52.5931 176.412 52.6312 176.434 52.8424Z" fill="#030140"/>
<path d="M245.375 39.2961C245.62 41.6718 245.839 44.0503 246.084 46.426C246.447 50.2035 246.834 53.9519 247.198 57.7295C247.288 58.6006 247.378 59.4717 247.465 60.3164C247.473 60.3956 247.534 60.4693 247.613 60.4612C248.6 60.4926 249.591 60.5505 250.578 60.5819C252.956 60.6832 255.334 60.7846 257.713 60.8859C260.599 61.0148 263.485 61.1437 266.346 61.2753C268.832 61.3921 271.318 61.509 273.828 61.5967C275.031 61.6592 276.264 61.7454 277.462 61.7551C277.488 61.7524 277.488 61.7524 277.515 61.7497C277.623 61.7652 277.72 61.6751 277.709 61.5695C277.458 59.141 277.231 56.6833 276.981 54.2548L275.829 42.5818C275.736 41.6843 275.646 40.8132 275.58 39.9129C275.569 39.8074 275.484 39.7627 275.376 39.7472C274.389 39.7157 273.404 39.7107 272.416 39.6792L265.269 39.51C262.388 39.4339 259.536 39.3815 256.655 39.3054C254.175 39.2413 251.694 39.1773 249.216 39.1396C248.389 39.1183 247.588 39.0942 246.762 39.0728C246.388 39.0581 245.985 39.0197 245.587 39.034C245.561 39.0367 245.561 39.0367 245.534 39.0395C245.295 39.0375 245.356 39.378 245.57 39.3826C246.557 39.4141 247.542 39.4191 248.53 39.4506C250.902 39.4991 253.304 39.5713 255.677 39.6198C258.558 39.6959 261.41 39.7483 264.291 39.8244C266.772 39.8885 269.252 39.9525 271.73 39.9902C272.557 40.0115 273.358 40.0356 274.185 40.057C274.451 40.0562 274.69 40.0581 274.959 40.0837C275.093 40.0966 275.254 40.1067 275.359 40.0958C275.386 40.0931 275.386 40.0931 275.412 40.0903C275.354 40.043 275.296 39.9956 275.209 39.9246L275.937 47.2393C276.311 51.1224 276.712 55.0028 277.089 58.9123C277.182 59.8098 277.271 60.681 277.338 61.5812C277.411 61.5202 277.485 61.4593 277.532 61.4011C276.544 61.3696 275.554 61.3118 274.567 61.2803C272.188 61.179 269.81 61.0777 267.432 60.9764C264.546 60.8475 261.685 60.7159 258.799 60.587C256.313 60.4701 253.827 60.3533 251.317 60.2655C250.487 60.2178 249.66 60.1964 248.857 60.146C248.591 60.1468 248.349 60.1184 248.083 60.1192C247.975 60.1037 247.785 60.0699 247.683 60.1072C247.656 60.1099 247.656 60.1099 247.63 60.1126C247.688 60.16 247.72 60.21 247.778 60.2574C247.533 57.8816 247.314 55.5032 247.068 53.1274C246.705 49.3499 246.318 45.6015 245.955 41.824C245.865 40.9529 245.775 40.0818 245.688 39.2371C245.719 39.0204 245.35 39.0585 245.375 39.2961Z" fill="#030140"/>
<path d="M281.447 96.7462C279.814 96.6479 278.178 96.5233 276.545 96.4251C273.945 96.2399 271.375 96.0784 268.775 95.8933C268.185 95.8475 267.569 95.8044 266.979 95.7586C267.04 95.8323 267.098 95.8797 267.159 95.9534C267.058 94.9767 266.957 94.0001 266.853 92.997C266.611 90.6476 266.392 88.2691 266.149 85.9198C265.855 83.0689 265.584 80.1889 265.29 77.338C265.037 74.883 264.81 72.4254 264.556 69.9704C264.472 69.1521 264.387 68.3338 264.303 67.5155C264.276 67.2515 264.251 67.0139 264.224 66.75C264.21 66.618 264.22 66.4569 264.183 66.354C264.18 66.3276 264.18 66.3276 264.177 66.3012C264.107 66.3886 264.059 66.4468 263.989 66.5341C266.438 66.5481 268.889 66.5885 271.312 66.6052C275.199 66.6308 279.114 66.6801 283.001 66.7057C283.907 66.7189 284.787 66.7349 285.69 66.7217C285.603 66.6506 285.545 66.6033 285.457 66.5322L285.752 69.3831C285.779 69.6471 286.2 69.6036 286.173 69.3396L285.879 66.4887C285.865 66.3568 285.754 66.3148 285.646 66.2993C283.197 66.2853 280.746 66.245 278.323 66.2283C274.436 66.2026 270.52 66.1533 266.634 66.1277C265.728 66.1145 264.848 66.0986 263.945 66.1118C263.84 66.1227 263.745 66.2391 263.756 66.3447C263.857 67.3214 263.958 68.2981 264.061 69.3012C264.304 71.6505 264.523 74.029 264.765 76.3784C265.06 79.2293 265.33 82.1093 265.625 84.9602C265.878 87.4151 266.105 89.8728 266.359 92.3277C266.443 93.146 266.528 93.9643 266.612 94.7827C266.65 95.1522 266.665 95.5509 266.732 95.9441C266.735 95.9705 266.735 95.9705 266.737 95.9969C266.746 96.0761 266.809 96.1763 266.917 96.1918C268.55 96.29 270.186 96.4146 271.819 96.5128C274.418 96.698 276.989 96.8595 279.589 97.0447C280.179 97.0905 280.795 97.1336 281.385 97.1794C281.651 97.1786 281.715 96.7718 281.447 96.7462Z" fill="#030140"/>
<path d="M166.791 90.8675L167.372 96.4902L167.454 97.2821C167.478 97.5196 167.82 97.4843 167.796 97.2467L167.215 91.6241L167.134 90.8322C167.109 90.5946 166.767 90.63 166.791 90.8675Z" fill="#030140"/>
<path d="M177.084 105.012C178.911 104.93 180.741 104.874 182.568 104.792L191.312 104.45C191.975 104.435 192.636 104.393 193.326 104.376C193.431 104.365 193.502 104.277 193.491 104.172C193.425 103.272 193.335 102.4 193.269 101.5C193.101 99.3566 192.906 97.2157 192.741 95.0985C192.526 92.5062 192.315 89.9402 192.1 87.3478C191.921 85.0986 191.719 82.8786 191.54 80.6294C191.49 79.8875 191.413 79.1484 191.364 78.4066C191.328 78.0634 191.345 77.7148 191.284 77.3743C191.281 77.348 191.281 77.348 191.278 77.3216C191.267 77.216 191.183 77.1713 191.075 77.1558C188.795 77.2311 186.517 77.3328 184.237 77.4081C180.633 77.5401 177.028 77.6721 173.427 77.8305C172.605 77.8619 171.784 77.8933 170.962 77.9248C170.723 77.9228 170.761 78.2924 170.998 78.2679C173.278 78.1926 175.555 78.0909 177.835 78.0156C181.44 77.8836 185.044 77.7517 188.646 77.5933C189.467 77.5618 190.289 77.5304 191.11 77.499L190.907 77.3332C190.973 78.2334 191.063 79.1045 191.129 80.0048L191.657 86.4065L192.298 94.1572C192.477 96.4064 192.679 98.6264 192.858 100.876C192.908 101.617 192.985 102.357 193.035 103.098C193.059 103.336 193.081 103.547 193.079 103.787C193.09 103.893 193.08 104.054 193.117 104.157C193.12 104.183 193.12 104.183 193.123 104.21L193.288 104.006C191.461 104.088 189.631 104.143 187.804 104.225L179.06 104.568C178.396 104.583 177.736 104.624 177.046 104.642C176.809 104.667 176.847 105.036 177.084 105.012Z" fill="#030140"/>
<path d="M185.976 38.3313C187.584 37.1516 189.719 38.7719 190.853 39.9621C192.315 41.492 193.751 43.2913 196.014 43.5646C198.545 43.8635 200.807 42.3228 202.735 40.8965C204.487 39.5685 206.659 37.9303 209.004 38.4886C209.903 38.6893 210.703 39.2203 211.447 39.7304C212.276 40.2851 213.11 40.8927 214.033 41.3309C215.848 42.1574 217.766 41.9326 219.544 41.1089C221.268 40.2906 222.768 39.0953 224.46 38.227C225.267 37.7968 226.135 37.4405 226.975 37.3271C227.185 37.3054 227.396 37.2836 227.633 37.2592C227.791 37.2429 227.712 37.251 227.659 37.2565C227.712 37.251 227.767 37.272 227.793 37.2693C227.901 37.2848 227.983 37.3031 228.065 37.3213C228.202 37.3605 228.12 37.3423 228.091 37.3186C228.146 37.3395 228.175 37.3632 228.228 37.3578C228.312 37.4024 228.394 37.4207 228.479 37.4653C228.674 37.5519 228.676 37.5783 228.877 37.7177C229.54 38.2095 229.945 38.7813 230.516 39.416C231.118 40.1008 231.745 40.7564 232.539 41.2347C233.473 41.7786 234.578 42.1714 235.637 42.3822C236.754 42.6404 237.953 42.6501 239.036 42.3248C239.578 42.1621 240.056 41.8993 240.5 41.56C241.215 41.0061 240.405 39.8624 239.664 40.4191C237.913 41.7471 235.474 41.0651 233.66 40.2386C232.151 39.5406 231.33 38.0247 230.07 36.9009C229.454 36.3508 228.692 35.9226 227.859 35.8485C226.895 35.7879 225.883 36.0259 224.988 36.385C223.174 37.1058 221.622 38.3065 219.94 39.2805C218.458 40.1272 216.825 40.8026 215.148 40.282C213.28 39.7013 211.894 38.1369 210.091 37.416C209.01 36.994 207.827 36.876 206.711 37.1512C205.49 37.4373 204.381 38.032 203.336 38.7269C201.421 40.0184 199.565 41.8907 197.149 42.1935C196.125 42.3259 195.142 42.0805 194.308 41.473C193.477 40.8919 192.813 40.1333 192.126 39.4039C190.72 37.895 188.768 36.2556 186.544 36.6186C185.994 36.7021 185.51 36.9121 185.067 37.2514C184.397 37.7207 185.233 38.8616 185.976 38.3313Z" fill="#030140"/>
<path d="M130.537 53.0449C128.933 52.1967 127.064 52.8967 125.793 53.9883C124.472 55.1117 123.701 56.6586 122.613 57.9715C122.114 58.5565 121.558 59.0942 120.843 59.3814C120.028 59.7324 119.151 59.7428 118.284 59.5922C116.384 59.2281 114.756 58.1423 113.046 57.305C111.337 56.4676 109.376 55.7631 107.452 56.2017C105.971 56.5414 104.887 57.6404 103.909 58.7285C102.954 59.7875 102.071 61.0258 100.876 61.8162C100.426 62.1026 99.8581 62.268 99.279 62.3278C98.9631 62.3604 98.9368 62.3631 98.5837 62.2929C98.4494 62.28 98.3386 62.2381 98.2016 62.1989C98.1753 62.2016 97.9828 62.1415 98.1199 62.1807C98.0382 62.1624 97.9538 62.1178 97.8721 62.0995C96.7093 61.6593 95.8533 60.8406 94.7449 60.1547C93.436 59.3294 92.0545 58.8317 90.4987 58.9656C89.601 59.0316 89.7481 60.4571 90.6431 60.3647C91.8304 60.2688 92.877 60.6143 93.9562 61.2766C93.8428 61.2082 94.0407 61.3212 94.0407 61.3212C94.0988 61.3686 94.1541 61.3895 94.2122 61.4369C94.3257 61.5052 94.4419 61.5999 94.5553 61.6682C94.8113 61.8286 95.0437 62.018 95.2997 62.1783C95.759 62.5044 96.2446 62.8278 96.7775 63.0929C97.9303 63.6942 99.1947 63.8305 100.436 63.4889C101.833 63.1046 102.864 62.011 103.796 60.9812C104.748 59.8958 105.633 58.6838 106.858 57.9171C107.058 57.7898 107.21 57.7207 107.491 57.6116C107.928 57.4599 108.376 57.4137 108.828 57.4203C109.708 57.4362 110.588 57.7188 111.422 58.0596C113.173 58.7859 114.778 59.9008 116.573 60.5425C118.424 61.2052 120.434 61.3445 122.157 60.2595C123.757 59.2673 124.612 57.4983 125.74 56.048C126.678 54.8306 128.424 53.4498 129.973 54.2771C130.311 54.4556 130.768 54.2484 130.92 53.9126C131.074 53.6032 130.875 53.2235 130.537 53.0449Z" fill="#030140"/>
<path d="M101.884 77.7725C102.749 83.3124 103.611 88.8259 104.449 94.3686C104.691 95.9442 104.931 97.4935 105.174 99.0692C105.246 99.5152 105.957 99.4419 105.884 98.9958C105.02 93.4559 104.158 87.9424 103.32 82.3998C103.077 80.8241 102.837 79.2748 102.595 77.6991C102.522 77.2531 101.812 77.3265 101.884 77.7725Z" fill="#030140"/>
<path d="M95.4534 90.4684C100.264 89.6516 105.134 89.1489 110.007 88.9393C111.41 88.8745 112.793 88.8652 114.202 88.8531C114.654 88.8597 114.581 88.147 114.128 88.1404C109.236 88.1652 104.376 88.5068 99.5197 89.1415C98.13 89.3383 96.7667 89.5324 95.3798 89.7556C94.935 89.8282 95.0086 90.541 95.4534 90.4684Z" fill="#030140"/>
<path d="M107.493 83.1428C104.784 87.0507 102.051 90.9878 99.3422 94.8957C99.0881 95.2688 99.64 95.7187 99.8941 95.3457C102.603 91.4377 105.336 87.5007 108.045 83.5927C108.299 83.2197 107.747 82.7697 107.493 83.1428Z" fill="#030140"/>
<path d="M98.1088 84.7518C102.087 87.7293 105.762 91.1116 108.998 94.886C109.3 95.2284 109.87 94.8228 109.568 94.4804C106.3 90.6559 102.594 87.2235 98.5572 84.1987C98.1823 83.9172 97.7339 84.4704 98.1088 84.7518Z" fill="#030140"/>
<path d="M290.162 50.2529C290.208 53.7963 290.255 57.3398 290.301 60.8832C290.299 61.1235 290.668 61.0855 290.643 60.8479C290.597 57.3044 290.55 53.761 290.504 50.2176C290.532 49.9745 290.163 50.0126 290.162 50.2529Z" fill="#030140"/>
<path d="M286.058 56.1189C289.231 55.9248 292.404 55.9974 295.549 56.313C295.765 56.3441 295.835 55.9901 295.619 55.959C292.421 55.6488 289.222 55.5789 286.02 55.7494C285.783 55.7738 285.819 56.117 286.058 56.1189Z" fill="#030140"/>
<path d="M292.592 53.1768C290.939 54.9481 289.289 56.7459 287.636 58.5172C287.495 58.6919 287.756 58.905 287.898 58.7303C289.55 56.959 291.2 55.1613 292.853 53.3899C293.024 53.2389 292.733 53.0021 292.592 53.1768Z" fill="#030140"/>
<path d="M287.779 53.4602C289.573 55.1158 291.175 56.978 292.53 59.0257C292.658 59.226 292.954 59.0086 292.827 58.8083C291.446 56.7633 289.814 54.8775 288.018 53.1954C287.841 53.0269 287.631 53.3154 287.779 53.4602Z" fill="#030140"/>
<path d="M4.66932 70.4937C5.82382 69.3074 7.27876 68.1967 8.69469 67.2235C10.2867 66.1521 11.9976 65.2018 13.7194 64.3571C17.3891 62.5377 21.2313 61.1006 25.1615 60.0012C27.0476 59.4597 28.9446 59.0238 30.8844 58.7435C31.7739 58.5983 31.6295 57.1992 30.7399 57.3444C26.9422 57.9232 23.2226 59.0008 19.6064 60.3079C15.7116 61.7504 11.8759 63.507 8.38415 65.7616C6.63693 66.8757 4.98503 68.1401 3.54191 69.623C3.27688 69.8904 3.35498 70.3893 3.64546 70.6261C3.98858 70.8574 4.4043 70.7612 4.66932 70.4937Z" fill="#030140"/>
<path d="M5.59925 76.6672C7.25562 74.4152 9.71987 72.7736 12.1351 71.4304C14.9525 69.859 17.9632 68.6145 21.0565 67.6549C22.6032 67.1751 24.1581 66.7744 25.7528 66.5031C26.4318 66.3797 26.3228 65.3238 25.6438 65.4472C22.5568 65.9526 19.5425 66.9041 16.6579 68.0823C13.6445 69.3004 10.7137 70.8035 8.09511 72.7546C6.86072 73.6823 5.6926 74.7367 4.75686 75.9804C4.36115 76.5282 5.17721 77.2176 5.59925 76.6672Z" fill="#030140"/>
<path d="M197.827 121.946L197.177 118.998C197.131 118.816 196.983 118.671 196.799 118.69C196.615 118.709 196.447 118.887 196.492 119.069L197.142 122.016C197.188 122.198 197.336 122.343 197.52 122.324C197.704 122.305 197.872 122.128 197.827 121.946Z" fill="#030140"/>
<path d="M200.043 123.317C200.929 122.106 201.815 120.894 202.675 119.684C202.929 119.311 202.403 118.859 202.123 119.234C201.237 120.446 200.351 121.658 199.492 122.868C199.237 123.241 199.789 123.691 200.043 123.317Z" fill="#030140"/>
<path d="M201.495 125.782C202.783 125.116 204.183 124.758 205.638 124.687C206.089 124.668 206.015 123.955 205.565 123.975C204.054 124.024 202.578 124.416 201.24 125.115C201.064 125.213 200.975 125.382 201.047 125.562C201.092 125.744 201.316 125.854 201.495 125.782Z" fill="#030140"/>
<path d="M201.005 127.994C201.841 129.135 202.677 130.275 203.542 131.44C203.82 131.812 204.387 131.38 204.112 131.034C203.276 129.894 202.44 128.753 201.575 127.588C201.297 127.217 200.73 127.649 201.005 127.994Z" fill="#030140"/>
<path d="M197.838 129.014C198.125 131.279 198.412 133.544 198.699 135.808C198.745 136.257 199.456 136.184 199.41 135.735C199.123 133.47 198.836 131.206 198.549 128.941C198.476 128.495 197.789 128.539 197.838 129.014Z" fill="#030140"/>
<path d="M195.487 128.403C194.776 129.757 194.09 131.109 193.382 132.489C193.183 132.883 193.826 133.19 194.022 132.77C194.734 131.416 195.419 130.064 196.128 128.684C196.353 128.287 195.712 128.007 195.487 128.403Z" fill="#030140"/>
<path d="M194.544 125.966L190.227 126.412C189.779 126.458 189.853 127.171 190.301 127.125L194.617 126.679C195.065 126.633 194.991 125.92 194.544 125.966Z" fill="#030140"/>
<path d="M195.517 123.278C194.68 122.644 193.814 121.986 192.977 121.352C192.832 121.234 192.595 121.259 192.477 121.404C192.359 121.55 192.383 121.787 192.529 121.906C193.365 122.54 194.231 123.197 195.068 123.831C195.214 123.949 195.451 123.925 195.569 123.779C195.686 123.634 195.688 123.394 195.517 123.278Z" fill="#030140"/>
<path d="M178.221 151.075C183.959 150.483 189.65 149.175 195.055 147.15C196.593 146.591 198.097 145.955 199.569 145.27C200.103 145.028 199.774 144.155 199.24 144.397C194.032 146.775 188.542 148.489 182.897 149.472C181.302 149.743 179.702 149.962 178.097 150.127C177.517 150.187 177.616 151.137 178.221 151.075Z" fill="#030140"/>
<path d="M94.5692 163.339C102.277 165.077 110.124 166.348 117.976 167.165C125.826 167.955 133.761 168.284 141.65 168.163C149.536 168.016 157.404 167.444 165.195 166.372C173.041 165.322 180.782 163.776 188.454 161.81C196.126 159.845 203.669 157.412 211.032 154.518C211.953 154.156 212.847 153.797 213.767 153.435C214.609 153.081 214.101 151.773 213.257 152.1C206.007 155.063 198.554 157.593 191.001 159.68C183.422 161.77 175.741 163.39 167.985 164.537C160.205 165.714 152.324 166.421 144.475 166.671C136.626 166.921 128.781 166.69 120.942 166.005C113.13 165.318 105.35 164.173 97.6816 162.564C96.7303 162.369 95.7763 162.147 94.796 161.928C93.8973 161.727 93.6705 163.138 94.5692 163.339Z" fill="#030140"/>
<path d="M189.745 91.5927L188.701 81.9896C188.679 81.7784 188.654 81.5408 188.48 81.3988C188.306 81.2567 188.066 81.2547 187.829 81.2792C185.899 81.3984 183.972 81.5439 182.016 81.6658C182.155 83.7858 182.803 89.0279 182.953 91.2535C183.089 93.347 189.835 92.4639 189.745 91.5927Z" fill="#F24B78"/>
<path d="M173.391 83.41C175.647 83.3638 177.877 83.3203 180.137 83.3005C180.587 83.2807 180.516 82.5944 180.063 82.5878C177.807 82.634 175.576 82.6774 173.317 82.6972C172.867 82.717 172.94 83.4298 173.391 83.41Z" fill="#030140"/>
<path d="M172.079 87.2003C174.947 87.1444 177.809 87.0357 180.66 86.8215C181.11 86.8017 181.036 86.0889 180.586 86.1087C177.735 86.323 174.876 86.4581 172.006 86.4876C171.556 86.5074 171.629 87.2201 172.079 87.2003Z" fill="#030140"/>
<path d="M170.045 91.9724C173.54 91.5582 177.086 91.3788 180.607 91.4689C181.06 91.4755 180.987 90.7628 180.534 90.7562C177.013 90.6661 173.467 90.8454 169.971 91.2596C169.5 91.335 169.571 92.0213 170.045 91.9724Z" fill="#030140"/>
<path d="M171.354 96.666C175.884 96.225 180.436 95.9952 184.989 96.0321C186.293 96.031 187.575 96.0853 188.884 96.1369C189.337 96.1435 189.453 95.4646 188.998 95.4316C184.402 95.239 179.781 95.3159 175.211 95.6276C173.915 95.708 172.596 95.8174 171.307 95.9506C170.833 95.9995 170.906 96.7122 171.354 96.666Z" fill="#030140"/>
<path d="M175.076 99.9901C179.56 99.8741 184.081 99.8609 188.56 99.9587C189.013 99.9653 188.94 99.2526 188.487 99.246C183.981 99.1509 179.486 99.1613 175.002 99.2774C174.552 99.2972 174.625 100.01 175.076 99.9901Z" fill="#030140"/>
<path d="M141.062 34.6442C140.772 34.6741 140.497 34.329 140.451 33.8802C140.404 33.4315 140.603 33.0374 140.893 33.0075C141.182 32.9777 141.457 33.3228 141.504 33.7715C141.55 34.2203 141.351 34.6143 141.062 34.6442ZM140.904 33.1131C140.693 33.1349 140.541 33.4707 140.582 33.8666C140.62 34.2362 140.84 34.5603 141.051 34.5386C141.261 34.5168 141.413 34.1811 141.372 33.7851C141.357 33.3864 141.14 33.0887 140.904 33.1131Z" fill="#030140"/>
<path d="M142.746 34.4703C142.457 34.5002 142.182 34.1551 142.135 33.7063C142.089 33.2576 142.288 32.8635 142.577 32.8337C142.867 32.8038 143.142 33.1489 143.188 33.5976C143.235 34.0464 143.036 34.4404 142.746 34.4703ZM142.588 32.9392C142.378 32.961 142.226 33.2968 142.267 33.6927C142.305 34.0623 142.525 34.3864 142.735 34.3647C142.946 34.343 143.097 34.0072 143.057 33.6112C143.016 33.2152 142.799 32.9175 142.588 32.9392Z" fill="#030140"/>
<path d="M144.72 34.2665C144.431 34.2964 144.156 33.9513 144.109 33.5025C144.063 33.0538 144.262 32.6597 144.551 32.6299C144.841 32.6 145.116 32.9451 145.162 33.3938C145.209 33.8426 145.01 34.2366 144.72 34.2665ZM144.562 32.7354C144.352 32.7572 144.2 33.093 144.241 33.4889C144.279 33.8585 144.499 34.1826 144.71 34.1609C144.92 34.1392 145.072 33.8034 145.031 33.4074C145.016 33.0087 144.799 32.711 144.562 32.7354Z" fill="#030140"/>
<path d="M139.683 36.4939C143.75 36.2074 147.841 35.8919 151.935 35.6027C152.172 35.5782 152.136 35.235 151.899 35.2595C147.806 35.5487 143.741 35.8616 139.648 36.1508C139.408 36.1488 139.443 36.492 139.683 36.4939Z" fill="#030140"/>
<path d="M138.848 52.3738C139.268 52.0636 139.686 51.7271 140.132 51.4142C140.503 51.1359 140.926 50.8521 141.264 50.5237C141.606 50.2217 141.886 49.8459 141.971 49.3836C142.033 48.9503 141.905 48.4833 141.656 48.1355C141.072 47.3688 140.044 47.2081 139.179 47.5909C138.39 47.9391 137.795 48.6141 137.505 49.4177C137.195 50.2768 137.191 51.2643 137.62 52.0737C137.724 52.3032 137.977 52.4371 138.205 52.3334C138.411 52.2589 138.565 51.9495 138.464 51.7465C137.958 50.705 138.213 49.3179 139.206 48.6285C139.48 48.4402 139.787 48.3284 140.106 48.3222C140.398 48.3187 140.646 48.3999 140.855 48.6184C140.913 48.6658 141.005 48.7896 141.014 48.8688C141.08 48.9954 141.091 49.1009 141.075 49.2093C141.05 49.4787 140.832 49.6879 140.638 49.868C140.297 50.17 139.9 50.4511 139.53 50.7294C139.136 51.0369 138.716 51.347 138.322 51.6545C137.825 51.9992 138.381 52.7422 138.848 52.3738Z" fill="#030140"/>
<path d="M124.583 98.1861C125.76 98.2513 126.937 98.3165 128.141 98.379C128.623 98.4093 129.152 98.3814 129.645 98.5172C130.027 98.6112 130.186 98.8616 129.984 99.2292C129.61 99.9881 128.638 100.622 127.774 100.498C127.073 100.41 126.418 99.7307 126.795 98.9982C126.86 98.8581 127.049 98.6251 127.212 98.6616C127.32 98.6772 127.392 98.8565 127.426 98.933C127.504 99.1651 127.475 99.4081 127.474 99.6484C127.48 99.9679 127.486 100.287 127.598 100.596C127.79 101.163 128.657 100.807 128.469 100.266C128.354 99.931 128.395 99.5533 128.386 99.2074C128.38 98.888 128.297 98.603 128.135 98.3262C127.78 97.7226 127.1 97.5794 126.525 97.9322C125.45 98.6034 125.59 100.216 126.514 100.921C127.584 101.745 129.068 101.431 130.015 100.56C130.501 100.11 130.976 99.5537 130.957 98.862C130.939 98.1702 130.393 97.7731 129.789 97.5953C129.46 97.4959 129.088 97.5075 128.741 97.4901C128.285 97.4571 127.858 97.4478 127.403 97.4148C126.494 97.3752 125.583 97.3092 124.674 97.2696C124.435 97.2676 124.179 97.374 124.154 97.6434C124.176 97.8546 124.34 98.1578 124.583 98.1861Z" fill="#030140"/>
<path d="M180.471 107.41C179.177 108.024 177.857 108.64 176.567 109.28C175.628 109.724 174.134 110.198 174.023 111.437C173.89 112.731 175.162 113.454 176.287 113.525C177.464 113.59 178.803 113.158 179.236 111.94C179.439 111.332 179.397 110.669 178.971 110.153C178.548 109.663 177.916 109.461 177.295 109.632C176.727 109.797 177.053 110.644 177.624 110.505C178.037 110.382 178.426 110.796 178.438 111.168C178.489 111.67 178.112 112.136 177.683 112.367C176.924 112.738 175.281 112.801 174.964 111.794C174.807 111.303 175.201 110.995 175.577 110.77C176.079 110.478 176.615 110.263 177.122 110.023C178.34 109.444 179.583 108.862 180.8 108.283C181.331 108.015 181.002 107.142 180.471 107.41Z" fill="#030140"/>
<path d="M176.417 110.15C176.309 110.908 176.359 111.65 176.567 112.375C176.644 112.607 176.95 112.736 177.152 112.635C177.408 112.528 177.488 112.28 177.411 112.048C177.406 111.995 177.377 111.971 177.371 111.919C177.368 111.892 177.368 111.892 177.374 111.945C177.371 111.919 177.368 111.892 177.366 111.866C177.358 111.787 177.323 111.71 177.318 111.657C177.301 111.499 177.285 111.341 177.269 111.182C177.26 111.103 177.252 111.024 177.273 110.968C177.268 110.915 177.265 110.889 177.259 110.836C177.257 110.81 177.257 110.81 177.254 110.783C177.259 110.836 177.259 110.836 177.254 110.783C177.264 110.622 177.274 110.461 177.31 110.297C177.338 110.054 177.179 109.804 176.937 109.776C176.695 109.747 176.445 109.907 176.417 110.15Z" fill="#030140"/>
<path d="M166.884 58.5236C166.116 58.8163 165.349 59.109 164.581 59.4017C163.863 59.6625 163.116 59.8997 162.435 60.2635C161.854 60.5635 161.453 61.0585 161.279 61.6901C161.128 62.2925 161.249 62.947 161.49 63.4824C161.766 64.0942 162.2 64.6896 162.88 64.8329C163.452 64.9606 164.07 64.7634 164.511 64.3977C165.049 63.942 165.271 63.2522 165.282 62.5841C165.295 61.9424 165.155 61.1031 164.63 60.6505C164.368 60.4374 164.01 60.3143 163.67 60.376C163.252 60.4459 162.995 60.7926 162.82 61.1575C162.499 61.911 162.402 62.7747 162.591 63.5821C162.642 63.817 162.822 64.0119 163.085 63.9847C163.322 63.9602 163.537 63.7246 163.486 63.4897C163.379 62.9672 163.354 62.463 163.486 61.9424C163.541 61.6967 163.707 60.9859 164.043 61.4047C164.315 61.7235 164.351 62.3333 164.313 62.7374C164.275 63.1415 164.105 63.5592 163.759 63.8084C163.459 63.9994 163.093 64.0639 162.806 63.8535C162.462 63.6221 162.253 63.1369 162.159 62.7463C162.068 62.3822 162.077 61.9544 162.255 61.6159C162.48 61.2192 162.941 61.0383 163.348 60.8628C164.629 60.3838 165.91 59.9048 167.19 59.4257C167.777 59.1785 167.45 58.3318 166.884 58.5236Z" fill="#030140"/>
<path d="M119.242 120.16C119.272 120.451 119.057 120.686 118.794 120.713C118.505 120.743 118.269 120.527 118.242 120.263C118.212 119.973 118.427 119.738 118.691 119.71C118.954 119.683 119.215 119.896 119.242 120.16Z" fill="black"/>
<path d="M119.934 124.544C119.964 124.834 119.749 125.07 119.486 125.097C119.197 125.127 118.961 124.911 118.934 124.647C118.904 124.357 119.119 124.121 119.382 124.094C119.646 124.067 119.907 124.28 119.934 124.544Z" fill="black"/>
<path d="M123.404 122.078C123.437 122.395 123.201 122.686 122.885 122.719C122.569 122.751 122.279 122.515 122.246 122.198C122.213 121.881 122.449 121.59 122.765 121.557C123.081 121.525 123.372 121.762 123.404 122.078Z" fill="black"/>
<path d="M127.1 123.858C127.135 124.201 126.876 124.521 126.533 124.557C126.191 124.592 125.872 124.331 125.836 123.988C125.801 123.645 126.06 123.325 126.403 123.289C126.745 123.254 127.064 123.515 127.1 123.858Z" fill="black"/>
<path d="M123.869 126.326C123.902 126.642 123.666 126.933 123.35 126.966C123.034 126.999 122.744 126.762 122.711 126.445C122.678 126.128 122.914 125.837 123.23 125.805C123.546 125.772 123.837 126.009 123.869 126.326Z" fill="black"/>
<path d="M128.004 131.848C128.04 132.191 127.78 132.511 127.438 132.547C127.096 132.582 126.776 132.322 126.741 131.978C126.705 131.635 126.965 131.315 127.307 131.28C127.649 131.244 127.969 131.505 128.004 131.848Z" fill="black"/>
<path d="M131.566 133.108C131.604 133.477 131.347 133.824 130.953 133.865C130.584 133.903 130.238 133.645 130.197 133.249C130.159 132.879 130.416 132.533 130.811 132.492C131.206 132.451 131.528 132.738 131.566 133.108Z" fill="black"/>
<path d="M128.163 135.7C128.198 136.043 127.938 136.363 127.596 136.399C127.254 136.434 126.934 136.174 126.899 135.83C126.864 135.487 127.123 135.167 127.465 135.132C127.808 135.096 128.127 135.357 128.163 135.7Z" fill="black"/>
<path d="M124.617 134.599C124.65 134.915 124.414 135.207 124.098 135.239C123.782 135.272 123.492 135.035 123.459 134.718C123.426 134.402 123.662 134.11 123.978 134.078C124.297 134.072 124.584 134.282 124.617 134.599Z" fill="black"/>
<path d="M124.324 130.467C124.356 130.784 124.12 131.075 123.804 131.108C123.489 131.14 123.198 130.903 123.165 130.587C123.133 130.27 123.369 129.979 123.684 129.946C124.027 129.911 124.291 130.15 124.324 130.467Z" fill="black"/>
<path d="M120.355 128.876C120.385 129.166 120.17 129.402 119.907 129.429C119.617 129.459 119.382 129.243 119.355 128.979C119.325 128.689 119.54 128.453 119.803 128.426C120.09 128.37 120.325 128.586 120.355 128.876Z" fill="black"/>
<path d="M120.765 133.102C120.795 133.393 120.58 133.628 120.316 133.655C120.027 133.685 119.792 133.469 119.764 133.206C119.734 132.915 119.95 132.679 120.213 132.652C120.502 132.622 120.737 132.838 120.765 133.102Z" fill="black"/>
<path d="M121.235 137.402C121.265 137.693 121.05 137.928 120.787 137.955C120.497 137.985 120.262 137.77 120.235 137.506C120.205 137.215 120.42 136.98 120.683 136.952C120.946 136.925 121.208 137.138 121.235 137.402Z" fill="black"/>
<path d="M125.193 138.888C125.226 139.205 124.99 139.496 124.674 139.528C124.358 139.561 124.067 139.324 124.035 139.007C124.002 138.691 124.238 138.4 124.554 138.367C124.872 138.361 125.16 138.571 125.193 138.888Z" fill="black"/>
<path d="M128.929 139.516C128.964 139.859 128.705 140.179 128.363 140.215C128.02 140.25 127.701 139.99 127.665 139.646C127.63 139.303 127.89 138.983 128.232 138.948C128.574 138.912 128.891 139.146 128.929 139.516Z" fill="black"/>
<path d="M126.284 143.017C126.317 143.334 126.081 143.625 125.765 143.658C125.449 143.69 125.159 143.453 125.126 143.137C125.093 142.82 125.329 142.529 125.645 142.496C125.961 142.464 126.249 142.674 126.284 143.017Z" fill="black"/>
<path d="M121.826 141.583C121.856 141.873 121.641 142.109 121.378 142.136C121.088 142.166 120.853 141.95 120.826 141.686C120.796 141.396 121.011 141.16 121.274 141.133C121.535 141.08 121.796 141.293 121.826 141.583Z" fill="black"/>
<path d="M122.235 145.543C122.265 145.833 122.05 146.069 121.787 146.096C121.497 146.126 121.262 145.91 121.235 145.646C121.205 145.356 121.42 145.12 121.683 145.093C121.944 145.039 122.205 145.252 122.235 145.543Z" fill="black"/>
<path d="M122.461 149.788C122.491 150.078 122.275 150.314 122.012 150.341C121.723 150.371 121.488 150.155 121.46 149.891C121.43 149.601 121.645 149.365 121.909 149.338C122.198 149.308 122.431 149.498 122.461 149.788Z" fill="black"/>
<path d="M126.025 151.848C126.058 152.165 125.822 152.456 125.506 152.488C125.19 152.521 124.9 152.284 124.867 151.967C124.834 151.651 125.07 151.359 125.386 151.327C125.705 151.321 125.995 151.557 126.025 151.848Z" fill="black"/>
<path d="M122.729 154.189C122.759 154.479 122.544 154.715 122.28 154.742C121.991 154.772 121.756 154.556 121.728 154.292C121.698 154.002 121.914 153.766 122.177 153.739C122.466 153.709 122.701 153.925 122.729 154.189Z" fill="black"/>
<path d="M126.37 156.214C126.402 156.531 126.164 156.796 125.874 156.826C125.558 156.858 125.294 156.619 125.264 156.328C125.231 156.012 125.47 155.747 125.76 155.717C126.049 155.687 126.337 155.897 126.37 156.214Z" fill="black"/>
<path d="M129.348 154.146C129.384 154.489 129.148 154.78 128.806 154.816C128.463 154.851 128.173 154.614 128.138 154.271C128.102 153.928 128.338 153.637 128.68 153.601C128.996 153.569 129.313 153.803 129.348 154.146Z" fill="black"/>
<path d="M129.753 158.319C129.788 158.663 129.552 158.954 129.21 158.989C128.868 159.024 128.577 158.788 128.542 158.444C128.506 158.101 128.742 157.81 129.085 157.775C129.427 157.739 129.72 158.003 129.753 158.319Z" fill="black"/>
<path d="M126.724 160.42C126.757 160.736 126.518 161.001 126.228 161.031C125.939 161.061 125.648 160.824 125.618 160.534C125.586 160.217 125.824 159.952 126.114 159.922C126.403 159.892 126.691 160.103 126.724 160.42Z" fill="black"/>
<path d="M123.134 158.629C123.164 158.919 122.949 159.155 122.685 159.182C122.396 159.212 122.161 158.996 122.134 158.732C122.104 158.442 122.319 158.206 122.582 158.179C122.871 158.149 123.107 158.365 123.134 158.629Z" fill="black"/>
<path d="M123.449 162.972C123.479 163.262 123.264 163.498 123.001 163.525C122.711 163.555 122.476 163.339 122.449 163.075C122.419 162.785 122.634 162.549 122.897 162.522C123.16 162.495 123.422 162.708 123.449 162.972Z" fill="black"/>
<path d="M159.346 137.55C159.404 138.104 159 138.573 158.473 138.627C157.947 138.681 157.453 138.279 157.398 137.751C157.341 137.197 157.745 136.728 158.272 136.674C158.798 136.619 159.292 137.022 159.346 137.55Z" fill="black"/>
<path d="M156.293 136.318C156.347 136.846 155.972 137.338 155.42 137.395C154.893 137.449 154.402 137.073 154.345 136.519C154.29 135.991 154.665 135.499 155.218 135.442C155.771 135.385 156.238 135.79 156.293 136.318Z" fill="black"/>
<path d="M153.226 134.954C153.28 135.482 152.903 135.947 152.376 136.002C151.85 136.056 151.385 135.677 151.33 135.149C151.276 134.621 151.653 134.155 152.18 134.101C152.706 134.047 153.171 134.426 153.226 134.954Z" fill="black"/>
<path d="M150.114 133.674C150.166 134.176 149.788 134.642 149.288 134.693C148.788 134.745 148.323 134.366 148.271 133.864C148.22 133.363 148.597 132.897 149.097 132.845C149.597 132.794 150.062 133.173 150.114 133.674Z" fill="black"/>
<path d="M147.023 132.339C147.072 132.814 146.718 133.251 146.244 133.3C145.771 133.349 145.335 132.994 145.286 132.518C145.237 132.043 145.591 131.607 146.065 131.558C146.538 131.509 146.971 131.838 147.023 132.339Z" fill="black"/>
<path d="M147.308 135.618C147.357 136.093 147.003 136.53 146.53 136.579C146.056 136.627 145.62 136.272 145.571 135.797C145.522 135.322 145.876 134.885 146.35 134.836C146.824 134.787 147.259 135.143 147.308 135.618Z" fill="black"/>
<path d="M147.99 138.615C148.039 139.091 147.685 139.527 147.212 139.576C146.738 139.625 146.302 139.27 146.253 138.795C146.204 138.32 146.558 137.883 147.032 137.834C147.503 137.759 147.939 138.114 147.99 138.615Z" fill="black"/>
<path d="M150.593 136.773C150.645 137.274 150.268 137.74 149.767 137.792C149.267 137.843 148.803 137.464 148.751 136.963C148.699 136.461 149.077 135.995 149.577 135.944C150.077 135.892 150.542 136.271 150.593 136.773Z" fill="black"/>
<path d="M151.078 139.924C151.13 140.426 150.753 140.891 150.252 140.943C149.752 140.995 149.288 140.616 149.236 140.114C149.184 139.613 149.562 139.147 150.062 139.095C150.562 139.044 151.027 139.422 151.078 139.924Z" fill="black"/>
<path d="M153.687 138.134C153.741 138.662 153.364 139.128 152.837 139.182C152.311 139.237 151.846 138.858 151.792 138.33C151.737 137.802 152.115 137.336 152.641 137.282C153.168 137.227 153.632 137.606 153.687 138.134Z" fill="black"/>
<path d="M156.699 139.477C156.753 140.005 156.352 140.5 155.826 140.554C155.299 140.609 154.805 140.206 154.751 139.678C154.696 139.15 155.098 138.655 155.624 138.601C156.153 138.573 156.644 138.949 156.699 139.477Z" fill="black"/>
<path d="M132.6 156.265C132.638 156.634 132.378 156.954 132.01 156.992C131.641 157.031 131.322 156.77 131.284 156.4C131.246 156.031 131.505 155.711 131.874 155.673C132.242 155.635 132.562 155.895 132.6 156.265Z" fill="black"/>
<path d="M135.49 154.366C135.531 154.762 135.248 155.111 134.853 155.152C134.458 155.192 134.109 154.908 134.068 154.512C134.028 154.116 134.311 153.767 134.706 153.726C135.1 153.685 135.449 153.97 135.49 154.366Z" fill="black"/>
<path d="M132.244 152.3C132.282 152.669 132.022 152.989 131.654 153.028C131.285 153.066 130.966 152.805 130.928 152.436C130.889 152.066 131.149 151.746 131.518 151.708C131.886 151.67 132.206 151.93 132.244 152.3Z" fill="black"/>
<path d="M135.283 150.812C135.324 151.208 135.038 151.531 134.669 151.569C134.274 151.61 133.952 151.323 133.914 150.953C133.873 150.557 134.159 150.234 134.527 150.196C134.896 150.158 135.244 150.443 135.283 150.812Z" fill="black"/>
<path d="M138.372 152.387C138.413 152.783 138.132 153.159 137.711 153.203C137.29 153.246 136.941 152.962 136.898 152.54C136.857 152.144 137.137 151.768 137.558 151.724C137.979 151.681 138.331 151.991 138.372 152.387Z" fill="black"/>
<path d="M138.22 148.855C138.261 149.251 137.954 149.629 137.559 149.67C137.164 149.711 136.787 149.403 136.746 149.007C136.705 148.611 137.012 148.233 137.406 148.192C137.801 148.151 138.179 148.459 138.22 148.855Z" fill="black"/>
<path d="M141.119 150.396C141.163 150.819 140.856 151.197 140.435 151.241C140.014 151.284 139.636 150.976 139.592 150.554C139.549 150.132 139.856 149.753 140.277 149.71C140.698 149.666 141.075 149.974 141.119 150.396Z" fill="black"/>
<path d="M143.44 148.396C143.486 148.845 143.179 149.223 142.732 149.269C142.284 149.316 141.907 149.008 141.861 148.559C141.814 148.11 142.121 147.732 142.568 147.686C142.987 147.616 143.394 147.947 143.44 148.396Z" fill="black"/>
<path d="M146.052 146.899C146.098 147.348 145.771 147.782 145.297 147.831C144.849 147.877 144.416 147.548 144.367 147.073C144.321 146.624 144.649 146.19 145.123 146.141C145.599 146.119 146.006 146.45 146.052 146.899Z" fill="black"/>
<path d="M148.766 145.098C148.815 145.573 148.461 146.01 147.987 146.059C147.513 146.108 147.078 145.753 147.029 145.278C146.98 144.803 147.334 144.366 147.807 144.317C148.281 144.268 148.717 144.623 148.766 145.098Z" fill="black"/>
<path d="M151.387 143.174C151.439 143.675 151.061 144.141 150.561 144.193C150.061 144.244 149.596 143.865 149.545 143.364C149.493 142.862 149.87 142.396 150.371 142.345C150.871 142.293 151.335 142.672 151.387 143.174Z" fill="black"/>
<path d="M154.019 141.355C154.074 141.883 153.696 142.348 153.17 142.403C152.643 142.457 152.179 142.078 152.124 141.55C152.07 141.022 152.447 140.556 152.974 140.502C153.5 140.448 153.965 140.827 154.019 141.355Z" fill="black"/>
<path d="M148.568 141.891C148.617 142.366 148.263 142.803 147.789 142.851C147.315 142.9 146.88 142.545 146.831 142.07C146.782 141.595 147.135 141.158 147.609 141.109C148.083 141.06 148.516 141.389 148.568 141.891Z" fill="black"/>
<path d="M145.691 143.655C145.737 144.104 145.409 144.538 144.935 144.587C144.488 144.633 144.055 144.304 144.006 143.829C143.96 143.38 144.287 142.946 144.761 142.897C145.238 142.875 145.644 143.206 145.691 143.655Z" fill="black"/>
<path d="M142.708 144.656C142.752 145.079 142.448 145.484 142 145.53C141.579 145.573 141.175 145.268 141.129 144.82C141.085 144.397 141.389 143.992 141.837 143.946C142.284 143.9 142.662 144.208 142.708 144.656Z" fill="black"/>
<path d="M140.342 146.475C140.385 146.897 140.079 147.276 139.657 147.319C139.236 147.363 138.859 147.055 138.815 146.632C138.771 146.21 139.078 145.832 139.499 145.788C139.921 145.745 140.298 146.052 140.342 146.475Z" fill="black"/>
<path d="M135.284 147.477C135.325 147.873 135.042 148.222 134.647 148.263C134.252 148.304 133.904 148.02 133.863 147.624C133.822 147.228 134.105 146.879 134.5 146.838C134.895 146.797 135.243 147.081 135.284 147.477Z" fill="black"/>
<path d="M133.273 144.75C133.312 145.12 133.028 145.469 132.66 145.507C132.291 145.545 131.946 145.287 131.905 144.891C131.867 144.522 132.15 144.172 132.518 144.134C132.889 144.123 133.235 144.38 133.273 144.75Z" fill="black"/>
<path d="M132.135 148.416C132.174 148.785 131.914 149.106 131.546 149.144C131.177 149.182 130.858 148.921 130.819 148.552C130.781 148.182 131.041 147.862 131.409 147.824C131.781 147.812 132.1 148.073 132.135 148.416Z" fill="black"/>
<path d="M129.044 149.909C129.079 150.252 128.843 150.543 128.501 150.578C128.159 150.614 127.869 150.377 127.833 150.034C127.798 149.691 128.034 149.399 128.376 149.364C128.718 149.329 129.011 149.592 129.044 149.909Z" fill="black"/>
<path d="M125.959 147.346C125.992 147.663 125.756 147.954 125.44 147.986C125.124 148.019 124.834 147.782 124.801 147.465C124.769 147.149 125.005 146.858 125.32 146.825C125.639 146.819 125.93 147.056 125.959 147.346Z" fill="black"/>
<path d="M129.409 145.709C129.444 146.052 129.184 146.373 128.842 146.408C128.5 146.443 128.181 146.183 128.145 145.84C128.11 145.497 128.369 145.176 128.711 145.141C129.054 145.106 129.373 145.366 129.409 145.709Z" fill="black"/>
<path d="M130.89 142.275C130.928 142.644 130.668 142.965 130.3 143.003C129.931 143.041 129.612 142.78 129.574 142.411C129.535 142.041 129.795 141.721 130.164 141.683C130.532 141.645 130.852 141.905 130.89 142.275Z" fill="black"/>
<path d="M131.581 136.601C131.619 136.971 131.36 137.291 130.991 137.329C130.622 137.367 130.303 137.106 130.265 136.737C130.227 136.367 130.486 136.047 130.855 136.009C131.197 135.974 131.543 136.231 131.581 136.601Z" fill="black"/>
<path d="M133.27 139.308C133.308 139.677 133.025 140.027 132.657 140.065C132.288 140.103 131.94 139.819 131.902 139.449C131.863 139.08 132.147 138.73 132.515 138.692C132.91 138.651 133.232 138.938 133.27 139.308Z" fill="black"/>
<path d="M135.465 142.016C135.506 142.412 135.223 142.761 134.828 142.802C134.433 142.843 134.085 142.559 134.044 142.163C134.003 141.767 134.286 141.417 134.681 141.377C135.076 141.336 135.425 141.62 135.465 142.016Z" fill="black"/>
<path d="M137.287 144.976C137.328 145.372 137.048 145.748 136.627 145.791C136.205 145.835 135.857 145.551 135.813 145.128C135.772 144.732 136.053 144.356 136.474 144.313C136.895 144.27 137.246 144.58 137.287 144.976Z" fill="black"/>
<path d="M139.332 142.364C139.376 142.786 139.069 143.165 138.648 143.208C138.227 143.252 137.849 142.944 137.805 142.521C137.762 142.099 138.069 141.721 138.49 141.677C138.911 141.634 139.289 141.941 139.332 142.364Z" fill="black"/>
<path d="M136.863 138.804C136.904 139.2 136.623 139.575 136.202 139.619C135.807 139.66 135.433 139.378 135.389 138.956C135.348 138.56 135.628 138.184 136.05 138.141C136.444 138.1 136.819 138.381 136.863 138.804Z" fill="black"/>
<path d="M138.342 135.61C138.386 136.032 138.079 136.41 137.658 136.454C137.237 136.497 136.859 136.19 136.816 135.767C136.772 135.345 137.079 134.966 137.5 134.923C137.95 134.903 138.299 135.187 138.342 135.61Z" fill="black"/>
<path d="M134.918 135.163C134.958 135.559 134.675 135.908 134.28 135.949C133.886 135.99 133.537 135.706 133.496 135.31C133.455 134.914 133.738 134.564 134.133 134.523C134.528 134.483 134.877 134.767 134.918 135.163Z" fill="black"/>
<path d="M137.582 132.113C137.626 132.535 137.316 132.888 136.922 132.928C136.5 132.972 136.149 132.661 136.108 132.265C136.065 131.843 136.374 131.491 136.769 131.45C137.164 131.409 137.541 131.717 137.582 132.113Z" fill="black"/>
<path d="M134.452 130.916C134.493 131.312 134.21 131.661 133.815 131.702C133.42 131.742 133.072 131.458 133.031 131.062C132.99 130.666 133.273 130.317 133.668 130.276C134.063 130.235 134.412 130.52 134.452 130.916Z" fill="black"/>
<path d="M131.092 129.288C131.13 129.658 130.873 130.004 130.479 130.045C130.11 130.083 129.764 129.826 129.723 129.43C129.685 129.06 129.942 128.713 130.337 128.673C130.734 128.658 131.054 128.919 131.092 129.288Z" fill="black"/>
<path d="M127.59 127.836C127.626 128.179 127.366 128.499 127.024 128.534C126.682 128.57 126.362 128.309 126.327 127.966C126.291 127.623 126.551 127.303 126.893 127.267C127.235 127.232 127.555 127.492 127.59 127.836Z" fill="black"/>
<path d="M130.681 125.302C130.719 125.672 130.462 126.019 130.067 126.059C129.672 126.1 129.353 125.84 129.312 125.444C129.274 125.074 129.531 124.727 129.925 124.687C130.32 124.646 130.642 124.933 130.681 125.302Z" fill="black"/>
<path d="M134.062 126.874C134.103 127.27 133.82 127.619 133.425 127.66C133.03 127.701 132.681 127.417 132.64 127.021C132.6 126.625 132.883 126.275 133.278 126.235C133.646 126.197 134.021 126.478 134.062 126.874Z" fill="black"/>
<path d="M137.269 128.304C137.312 128.726 137.003 129.078 136.608 129.119C136.187 129.163 135.836 128.852 135.795 128.456C135.751 128.034 136.061 127.682 136.456 127.641C136.85 127.6 137.228 127.908 137.269 128.304Z" fill="black"/>
<path d="M140.48 129.52C140.524 129.942 140.22 130.347 139.772 130.393C139.351 130.437 138.947 130.131 138.901 129.683C138.857 129.26 139.161 128.855 139.609 128.809C140.056 128.763 140.434 129.071 140.48 129.52Z" fill="black"/>
<path d="M140.934 132.888C140.978 133.31 140.674 133.715 140.227 133.761C139.805 133.805 139.401 133.499 139.355 133.051C139.311 132.628 139.616 132.223 140.063 132.177C140.484 132.134 140.891 132.465 140.934 132.888Z" fill="black"/>
<path d="M141.612 136.099C141.655 136.522 141.351 136.926 140.904 136.973C140.483 137.016 140.079 136.711 140.032 136.262C139.989 135.84 140.293 135.435 140.74 135.389C141.188 135.343 141.565 135.65 141.612 136.099Z" fill="black"/>
<path d="M140.313 138.981C140.357 139.403 140.05 139.782 139.629 139.825C139.208 139.869 138.83 139.561 138.786 139.139C138.743 138.716 139.05 138.338 139.471 138.294C139.889 138.225 140.269 138.559 140.313 138.981Z" fill="black"/>
<path d="M142.652 141.274C142.698 141.723 142.391 142.101 141.944 142.148C141.496 142.194 141.118 141.886 141.072 141.437C141.026 140.988 141.333 140.61 141.78 140.564C142.228 140.518 142.605 140.825 142.652 141.274Z" fill="black"/>
<path d="M145.693 140.587C145.742 141.062 145.412 141.469 144.938 141.518C144.464 141.567 144.058 141.236 144.008 140.761C143.959 140.285 144.29 139.878 144.764 139.829C145.237 139.78 145.647 140.138 145.693 140.587Z" fill="black"/>
<path d="M144.317 137.821C144.363 138.27 144.033 138.677 143.585 138.723C143.138 138.77 142.731 138.438 142.685 137.989C142.638 137.541 142.969 137.133 143.416 137.087C143.864 137.041 144.27 137.372 144.317 137.821Z" fill="black"/>
<path d="M144.294 134.248C144.34 134.697 144.01 135.105 143.562 135.151C143.115 135.197 142.708 134.865 142.662 134.417C142.616 133.968 142.946 133.56 143.393 133.514C143.841 133.468 144.248 133.799 144.294 134.248Z" fill="black"/>
<path d="M143.813 130.883C143.86 131.332 143.529 131.739 143.082 131.786C142.634 131.832 142.228 131.5 142.181 131.051C142.135 130.603 142.466 130.195 142.913 130.149C143.36 130.103 143.767 130.434 143.813 130.883Z" fill="black"/>
<path d="M62.0222 176.116L63.588 177.368L63.9828 177.328L61.9786 175.694L62.0222 176.116Z" fill="#030140"/>
<path d="M61.6706 172.711L66.9573 177.02L67.3785 176.977L61.6298 172.315L61.6706 172.711Z" fill="#030140"/>
<path d="M61.3218 169.332L70.3266 176.673L70.7478 176.629L61.281 168.936L61.3218 169.332Z" fill="#030140"/>
<path d="M60.973 165.953L72.4179 175.283L72.3743 174.861L60.9322 165.557L60.973 165.953Z" fill="#030140"/>
<path d="M60.6242 162.574L72.0663 171.878L72.0255 171.482L60.5806 162.152L60.6242 162.574Z" fill="#030140"/>
<path d="M60.2754 159.195L71.7175 168.499L71.6767 168.103L60.2318 158.773L60.2754 159.195Z" fill="#030140"/>
<path d="M59.9266 155.817L71.3687 165.12L71.3279 164.724L59.883 155.394L59.9266 155.817Z" fill="#030140"/>
<path d="M59.5778 152.438L71.0199 161.741L70.9763 161.319L59.5342 152.015L59.5778 152.438Z" fill="#030140"/>
<path d="M59.2263 149.032L70.6711 158.362L70.6275 157.94L59.1854 148.637L59.2263 149.032Z" fill="#030140"/>
<path d="M58.8584 145.469L70.3033 154.799L70.2597 154.376L58.8176 145.073L58.8584 145.469Z" fill="#030140"/>
<path d="M58.4906 141.905L69.9327 151.209L69.8918 150.813L58.447 141.483L58.4906 141.905Z" fill="#030140"/>
<path d="M58.1227 138.342L69.5648 147.645L69.5239 147.249L58.0791 137.919L58.1227 138.342Z" fill="#030140"/>
<path d="M57.7548 134.778L69.1969 144.081L69.156 143.685L57.7112 134.356L57.7548 134.778Z" fill="#030140"/>
<path d="M57.3869 131.214L68.829 140.518L68.7854 140.095L57.3433 130.792L57.3869 131.214Z" fill="#030140"/>
<path d="M284.53 74.0446L285.427 72.9382L285.717 72.9083L284.56 74.3349L284.53 74.0446Z" fill="#030140"/>
<path d="M284.778 76.4467L287.822 72.6909L288.112 72.661L284.808 76.7371L284.778 76.4467Z" fill="#030140"/>
<path d="M285.029 78.8753L290.244 72.441L290.534 72.4111L285.059 79.1656L285.029 78.8753Z" fill="#030140"/>
<path d="M285.277 81.2774L291.884 73.1253L291.914 73.4157L285.307 81.5678L285.277 81.2774Z" fill="#030140"/>
<path d="M285.525 83.6795L292.132 75.5275L292.162 75.8178L285.555 83.9699L285.525 83.6795Z" fill="#030140"/>
<path d="M285.776 86.1081L292.38 77.9296L292.41 78.22L285.806 86.3984L285.776 86.1081Z" fill="#030140"/>
<path d="M286.024 88.5102L292.631 80.3582L292.661 80.6485L286.054 88.8006L286.024 88.5102Z" fill="#030140"/>
<path d="M286.272 90.9124L292.879 82.7603L292.909 83.0507L286.302 91.2027L286.272 90.9124Z" fill="#030140"/>
<path d="M286.522 93.3409L293.127 85.1625L293.157 85.4528L286.552 93.6313L286.522 93.3409Z" fill="#030140"/>
<path d="M286.784 95.8751L293.391 87.723L293.421 88.0134L286.814 96.1655L286.784 95.8751Z" fill="#030140"/>
<path d="M287.045 98.4092L293.653 90.2571L293.683 90.5475L287.075 98.6996L287.045 98.4092Z" fill="#030140"/>
<path d="M287.31 100.97L293.914 92.7913L293.944 93.0816L287.34 101.26L287.31 100.97Z" fill="#030140"/>
<path d="M287.571 103.504L294.179 95.3518L294.209 95.6421L287.601 103.794L287.571 103.504Z" fill="#030140"/>
<path d="M287.833 106.038L294.44 97.8859L294.47 98.1763L287.863 106.328L287.833 106.038Z" fill="#030140"/>
<path d="M21.5191 124.192C22.333 132.592 23.1759 141.015 23.9898 149.415C24.0852 150.339 24.4738 151.526 25.3978 151.457C25.7137 151.425 26.0132 151.234 26.2601 151.048C30.9753 147.76 35.7141 144.443 40.4293 141.155C41.3959 140.469 42.506 139.367 42.0203 138.27C41.845 137.861 41.4438 137.582 41.098 137.325C34.6385 132.736 28.2054 128.144 21.7432 123.529" fill="white"/>
<path d="M22.8839 119.89C23.3999 125.145 23.9158 130.401 24.4318 135.657C24.6752 138.273 24.9423 140.86 25.1857 143.476C25.2893 144.479 25.2748 145.628 25.7179 146.569C26.1554 147.457 27.0523 147.898 27.9563 147.378C28.4845 147.084 28.9783 146.713 29.4484 146.371C29.9948 145.994 30.5412 145.617 31.0613 145.244C32.1541 144.491 33.2206 143.74 34.3134 142.987C36.4727 141.484 38.6293 139.954 40.8149 138.448C41.7579 137.79 42.8117 137.174 43.6276 136.316C44.273 135.609 44.7567 134.626 44.261 133.69C44.025 133.207 43.5947 132.905 43.1617 132.576C42.618 132.205 42.0979 131.806 41.5541 131.435C40.4902 130.664 39.4001 129.896 38.3362 129.126C34.0571 126.073 29.778 123.02 25.499 119.966C24.9552 119.596 24.4351 119.196 23.8914 118.825C23.374 118.452 22.7368 119.238 23.2778 119.582C27.3563 122.496 31.4611 125.407 35.5395 128.321C37.5774 129.764 39.589 131.211 41.6268 132.655C42.1152 133.004 42.6271 133.325 43.0656 133.707C43.3851 133.967 43.6075 134.318 43.4905 134.73C43.2881 135.604 42.3133 136.212 41.6171 136.684C37.4982 139.564 33.4057 142.44 29.2841 145.294C28.7876 145.638 28.2938 146.01 27.771 146.357C27.4715 146.548 27.1221 146.771 26.8261 146.481C26.2633 145.926 26.3095 144.827 26.236 144.114C26.0034 141.604 25.7473 139.123 25.4884 136.615L24.0223 121.639C23.9596 121.032 23.8969 120.425 23.8315 119.792C23.8188 119.153 22.8185 119.256 22.8839 119.89Z" fill="black"/>
<path d="M317.69 95.806C318.463 103.036 319.259 110.237 320.032 117.467C320.114 118.259 319.983 119.313 319.225 119.445C318.962 119.472 318.685 119.367 318.435 119.26C313.87 117.303 309.334 115.37 304.769 113.414C303.822 113.005 302.709 112.266 302.926 111.283C303.02 110.9 303.282 110.606 303.544 110.312C308.164 105.326 312.781 100.315 317.401 95.3289" fill="white"/>
<path d="M314.953 92.487C315.423 96.787 315.891 101.061 316.362 105.361C316.582 107.499 316.832 109.661 317.053 111.799C317.102 112.274 317.151 112.749 317.203 113.251C317.252 113.726 317.353 114.196 317.321 114.652C317.322 114.919 317.278 115.27 317.113 115.474C316.903 115.763 316.568 115.611 316.292 115.506C312.344 113.859 308.388 112.133 304.435 110.434C303.573 110.069 302.637 109.765 301.84 109.261C301.555 109.077 301.238 108.843 301.071 108.513C300.869 108.107 301.074 107.766 301.333 107.446C301.997 106.657 302.721 105.942 303.413 105.177C304.132 104.409 304.851 103.641 305.567 102.847C308.846 99.3067 312.123 95.7404 315.402 92.2005C315.785 91.7874 315.12 91.2692 314.734 91.6558C311.646 94.9893 308.559 98.3227 305.471 101.656C303.939 103.308 302.407 104.96 300.877 106.639C300.279 107.288 299.885 108.102 300.372 108.959C300.793 109.689 301.637 110.135 302.389 110.458C306.564 112.241 310.738 114.025 314.913 115.808C315.664 116.131 316.72 116.822 317.513 116.26C318.133 115.822 318.204 114.961 318.186 114.27C318.127 113.182 317.96 112.079 317.848 110.996L317.475 107.647C316.98 103.109 316.488 98.5979 315.993 94.0603C315.933 93.4796 315.876 92.9252 315.816 92.3445C315.741 91.8721 314.872 91.9617 314.953 92.487Z" fill="black"/>
</g>
<defs>
<clipPath id="clip0">
<rect width="352.483" height="162.94" fill="white" transform="translate(-18 36.4443) rotate(-5.8938)"/>
</clipPath>
</defs>
</svg>
